<svg xmlns="http://www.w3.org/2000/svg" width="238.0061492919922" height="230.0594940185547" viewBox="-24.639232635498047 -15.239675521850586 238.0061492919922 230.0594940185547"><title>Neo4j Graph Visualization</title><desc>Created using Neo4j (http://www.neo4j.com/)</desc><g class="layer relationships"><g class="relationship" transform="translate(184.36693273186552 81.72152575960371) rotate(220.17612050606715)"><path class="outline" fill="#A5ABB6" stroke="none" d="M 25 0.5 L 39.505059879749396 0.5 L 39.505059879749396 -0.5 L 25 -0.5 Z M 58.83839289519129 0.5 L 73.34345277494069 0.5 L 73.34345277494069 3.5 L 80.34345277494069 0 L 73.34345277494069 -3.5 L 73.34345277494069 -0.5 L 58.83839289519129 -0.5 Z"/><text text-anchor="middle" pointer-events="none" font-size="8px" fill="#000000" x="49.17172638747034" y="3" transform="rotate(180 49.17172638747034 0)" font-family="sans-serif">trek</text></g><g class="relationship" transform="translate(165.8206619508614 185.81982418624187) rotate(280.1018882876844)"><path class="outline" fill="#A5ABB6" stroke="none" d="M 21.40063509461097,12.933012701892217 L 21.90063509461097,12.06698729810778 A 58.16273896905636 58.16273896905636 0 0 0 39.65042045803568,18.744797801784145 L 39.4555949680062,19.725635723377096 A 59.16273896905636 59.16273896905636 0 0 1 21.40063509461097,12.933012701892217 Z M 58.856085963413385,20.332987345168462 L 58.7229940626413,19.341883644262808 A 58.16273896905636 58.16273896905636 0 0 0 76.85572319243701,13.787410863150727 L 75.52117194509653,11.100596212263557 L 83.34738258573049,11.121260394504107 L 78.63512485555766,17.369830397666952 L 77.30057360821718,14.683015746779782 A 59.16273896905636 59.16273896905636 0 0 1 58.856085963413385,20.332987345168462"/><text text-anchor="middle" pointer-events="none" font-size="8px" fill="#000000" x="49.14640860599693" y="23.33059122607581" font-family="sans-serif">trek</text></g><g class="relationship" transform="translate(165.8206619508614 185.81982418624187) rotate(280.1018882876844)"><path class="outline" fill="#A5ABB6" stroke="none" d="M 25 0.5 L 38.35360036068939 0.5 L 38.35360036068939 -0.5 L 25 -0.5 Z M 60.383904315767516 0.5 L 73.73750467645691 0.5 L 73.73750467645691 3.5 L 80.73750467645691 0 L 73.73750467645691 -3.5 L 73.73750467645691 -0.5 L 60.383904315767516 -0.5 Z"/><text text-anchor="middle" pointer-events="none" font-size="8px" fill="#000000" x="49.368752338228454" y="3" font-family="sans-serif">road</text></g><g class="relationship" transform="translate(165.8206619508614 185.81982418624187) rotate(280.1018882876844)"><path class="outline" fill="#A5ABB6" stroke="none" d="M 21.40063509461097,-12.933012701892217 L 21.90063509461097,-12.06698729810778 A 58.16273896905636 58.16273896905636 0 0 1 22.672471546326747,-12.504791147493187 L 22.185741836987,-13.378343773295455 A 59.16273896905636 59.16273896905636 0 0 0 21.40063509461097,-12.933012701892217 Z M 76.48914850887871,-15.078365804633599 L 76.05801323059012,-14.176078504592745 A 58.16273896905636 58.16273896905636 0 0 1 76.85572319243701,-13.787410863150727 L 75.52117194509653,-11.100596212263557 L 83.34738258573049,-11.121260394504107 L 78.63512485555766,-17.369830397666952 L 77.30057360821718,-14.683015746779782 A 59.16273896905636 59.16273896905636 0 0 0 76.48914850887871,-15.078365804633599"/><text text-anchor="middle" pointer-events="none" font-size="8px" fill="#000000" x="49.14640860599693" y="-17.33059122607581" font-family="sans-serif">PublicTrans…</text></g><g class="relationship" transform="translate(103.87769028636362 13.760324378997039) rotate(520.2486986502205)"><path class="outline" fill="#A5ABB6" stroke="none" d="M 25 0.5 L 39.70215563109552 0.5 L 39.70215563109552 -0.5 L 25 -0.5 Z M 59.03548864653742 0.5 L 73.73764427763294 0.5 L 73.73764427763294 3.5 L 80.73764427763294 0 L 73.73764427763294 -3.5 L 73.73764427763294 -0.5 L 59.03548864653742 -0.5 Z"/><text text-anchor="middle" pointer-events="none" font-size="8px" fill="#000000" x="49.36882213881647" y="3" transform="rotate(180 49.36882213881647 0)" font-family="sans-serif">trek</text></g></g><g class="layer nodes"><g class="node" transform="translate(165.8206619508614,185.81982418624187)"><circle class="outline" cx="0" cy="0" r="25" fill="#8DCC93" stroke="#5db665" stroke-width="2px"/><text text-anchor="middle" pointer-events="none" font-family="sans-serif" dy="1.5625" font-size="25" fill="#604A0E"/><text text-anchor="middle" pointer-events="none" y="5" font-size="10px" fill="#604A0E" font-family="sans-serif"> Darjeeling</text></g><g class="node" transform="translate(184.36693273186552,81.72152575960371)"><circle class="outline" cx="0" cy="0" r="25" fill="#8DCC93" stroke="#5db665" stroke-width="2px"/><text text-anchor="middle" pointer-events="none" font-family="sans-serif" dy="1.5625" font-size="25" fill="#604A0E"/><text text-anchor="middle" pointer-events="none" y="5" font-size="10px" fill="#604A0E" font-family="sans-serif"> Rimbik</text></g><g class="node" transform="translate(103.87769028636362,13.760324378997039)"><circle class="outline" cx="0" cy="0" r="25" fill="#4C8EDA" stroke="#2870c2" stroke-width="2px"/><text text-anchor="middle" pointer-events="none" font-family="sans-serif" dy="1.5625" font-size="25" fill="#FFFFFF"/><text text-anchor="middle" pointer-events="none" y="5" font-size="10px" fill="#FFFFFF" font-family="sans-serif"> BhikeBh…</text></g><g class="node" transform="translate(4.360767149688669,49.49310242370514)"><circle class="outline" cx="0" cy="0" r="25" fill="#ECB5C9" stroke="#da7298" stroke-width="2px"/><text text-anchor="middle" pointer-events="none" font-family="sans-serif" dy="1.5625" font-size="25" fill="#604A0E"/><text text-anchor="middle" pointer-events="none" y="5" font-size="10px" fill="#604A0E" font-family="sans-serif"> Sandak…</text></g></g></svg>