<svg xmlns="http://www.w3.org/2000/svg" width="384.6209716796875" height="370.3921813964844" viewBox="-93.13536834716797 -84.05490112304688 384.6209716796875 370.3921813964844"><title>Neo4j Graph Visualization</title><desc>Created using Neo4j (http://www.neo4j.com/)</desc><g class="layer relationships"><g class="relationship" transform="translate(262.4856066084121 235.50438533762238) rotate(232.8263617344337)"><path class="outline" fill="#A5ABB6" stroke="none" d="M 21.40063509461097,12.933012701892217 L 21.90063509461097,12.06698729810778 A 64.67863516928726 64.67863516928726 0 0 0 23.039536468481124,12.709271437356264 L 22.55714508639474,13.585227232182 A 65.67863516928726 65.67863516928726 0 0 1 21.40063509461097,12.933012701892217 Z M 82.46024512466387,15.360460371561487 L 82.03057279099446,14.457475495896851 A 64.67863516928726 64.67863516928726 0 0 0 83.20551034693554,13.88376215757122 L 81.86199601989999,11.201418172723226 L 89.68823203275345,11.195952725296266 L 84.99686278298294,17.46022080403521 L 83.6533484559474,14.777876819187217 A 65.67863516928726 65.67863516928726 0 0 1 82.46024512466387,15.360460371561487"/><text text-anchor="middle" pointer-events="none" font-size="8px" fill="#000000" x="52.309226268738335" y="24.203678991768584" transform="rotate(180 52.309226268738335 21.203678991768584)" font-family="sans-serif">PublicTransport</text></g><g class="relationship" transform="translate(194.78672587218264 146.2291406359647) rotate(269.81259656434486)"><path class="outline" fill="#A5ABB6" stroke="none" d="M 25 0.5 L 43.25276166361584 0.5 L 43.25276166361584 -0.5 L 25 -0.5 Z M 62.58609467905774 0.5 L 80.83885634267358 0.5 L 80.83885634267358 3.5 L 87.83885634267358 0 L 80.83885634267358 -3.5 L 80.83885634267358 -0.5 L 62.58609467905774 -0.5 Z"/><text text-anchor="middle" pointer-events="none" font-size="8px" fill="#000000" x="52.91942817133679" y="3" transform="rotate(180 52.91942817133679 0)" font-family="sans-serif">trek</text></g><g class="relationship" transform="translate(194.4176524111162 33.39088787785584) rotate(225.37864624187438)"><path class="outline" fill="#A5ABB6" stroke="none" d="M 25 0.5 L 48.96470638632555 0.5 L 48.96470638632555 -0.5 L 25 -0.5 Z M 68.29803940176745 0.5 L 92.262745788093 0.5 L 92.262745788093 3.5 L 99.262745788093 0 L 92.262745788093 -3.5 L 92.262745788093 -0.5 L 68.29803940176745 -0.5 Z"/><text text-anchor="middle" pointer-events="none" font-size="8px" fill="#000000" x="58.6313728940465" y="3" transform="rotate(180 58.6313728940465 0)" font-family="sans-serif">trek</text></g><g class="relationship" transform="translate(262.4856066084121 235.50438533762238) rotate(232.8263617344337)"><path class="outline" fill="#A5ABB6" stroke="none" d="M 25 0.5 L 41.50539730903764 0.5 L 41.50539730903764 -0.5 L 25 -0.5 Z M 63.535701264115765 0.5 L 80.0410985731534 0.5 L 80.0410985731534 3.5 L 87.0410985731534 0 L 80.0410985731534 -3.5 L 80.0410985731534 -0.5 L 63.535701264115765 -0.5 Z"/><text text-anchor="middle" pointer-events="none" font-size="8px" fill="#000000" x="52.5205492865767" y="3" transform="rotate(180 52.5205492865767 0)" font-family="sans-serif">road</text></g><g class="relationship" transform="translate(262.4856066084121 235.50438533762238) rotate(232.8263617344337)"><path class="outline" fill="#A5ABB6" stroke="none" d="M 21.40063509461097,-12.933012701892217 L 21.90063509461097,-12.06698729810778 A 64.67863516928726 64.67863516928726 0 0 1 42.79188007660515,-19.71106898695524 L 42.61488078506652,-20.695279965757464 A 65.67863516928726 65.67863516928726 0 0 0 21.40063509461097,-12.933012701892217 Z M 62.016665260329624,-21.27025339353635 L 61.898259745948415,-20.27728806978928 A 64.67863516928726 64.67863516928726 0 0 1 83.20551034693554,-13.88376215757122 L 81.86199601989999,-11.201418172723226 L 89.68823203275345,-11.195952725296266 L 84.99686278298294,-17.46022080403521 L 83.6533484559474,-14.777876819187217 A 65.67863516928726 65.67863516928726 0 0 0 62.016665260329624,-21.27025339353635"/><text text-anchor="middle" pointer-events="none" font-size="8px" fill="#000000" x="52.30922626873834" y="-18.203678991768584" transform="rotate(180 52.30922626873834 -21.203678991768584)" font-family="sans-serif">trek</text></g><g class="relationship" transform="translate(194.78672587218264 146.2291406359647) rotate(196.06062504058536)"><path class="outline" fill="#A5ABB6" stroke="none" d="M 24.018736134675446,-6.953439040707552 L 24.277555179777966,-5.987513214418485 A 190.82699559207956 190.82699559207956 0 0 1 61.82800383592997,-12.12216948554547 L 61.765962235966406,-13.120243049905298 A 191.82699559207956 191.82699559207956 0 0 0 24.018736134675446,-6.953439040707552 Z M 81.14027977646985,-13.34416490539897 L 81.10132246603135,-12.344924029552004 A 190.82699559207956 190.82699559207956 0 0 1 118.783526168366,-7.079781488372106 L 118.07425057447509,-4.164832409586904 L 125.70328661784662,-5.910629949090863 L 119.72922696022053,-10.96638026008571 L 119.01995136632962,-8.051431181300508 A 191.82699559207956 191.82699559207956 0 0 0 81.14027977646985,-13.34416490539897"/><text text-anchor="middle" pointer-events="none" font-size="8px" fill="#000000" x="71.45607047563257" y="-9.977007999191443" transform="rotate(180 71.45607047563257 -12.977007999191443)" font-family="sans-serif">trek</text></g><g class="relationship" transform="translate(50.64655776491274 104.73250643200262) rotate(242.25767514307245)"><path class="outline" fill="#A5ABB6" stroke="none" d="M 24.018736134675446,-6.953439040707552 L 24.277555179777966,-5.987513214418485 A 167.98049061276978 167.98049061276978 0 0 1 42.56437631580249,-9.811891924169714 L 42.41442003844947,-10.80058455329285 A 168.98049061276978 168.98049061276978 0 0 0 24.018736134675446,-6.953439040707552 Z M 88.91596435088525,-11.380996267814993 L 88.79073179345735,-10.388868853336362 A 167.98049061276978 167.98049061276978 0 0 1 107.167309572807,-7.022106477393398 L 106.46342061392245,-4.105851973143051 L 114.08921824253856,-5.865741324037858 L 108.10582818465305,-10.91044581639386 L 107.4019392257685,-7.994191312143513 A 168.98049061276978 168.98049061276978 0 0 0 88.91596435088525,-11.380996267814993"/><text text-anchor="middle" pointer-events="none" font-size="8px" fill="#000000" x="65.65137015463907" y="-9.198187437151262" transform="rotate(180 65.65137015463907 -12.198187437151262)" font-family="sans-serif">twowheeler</text></g><g class="relationship" transform="translate(-13.774052360343688 -17.750748472927896) rotate(342.8531630216951)"><path class="outline" fill="#A5ABB6" stroke="none" d="M 24.018736134675446,6.953439040707552 L 24.277555179777966,5.987513214418485 A 144.54656871382196 144.54656871382196 0 0 0 36.67356415281266,8.73176661533023 L 36.50050299932482,9.716677696166215 A 145.54656871382196 145.54656871382196 0 0 1 24.018736134675446,6.953439040707552 Z M 82.97195501766947,10.348323937342968 L 82.82572694002663,9.359073034230477 A 144.54656871382196 144.54656871382196 0 0 0 95.2917432745448,6.952747633230565 L 94.59433239499765,4.034937141596595 L 102.21620290161526,5.811757329559552 L 96.22162444727434,10.84316162207586 L 95.52421356772719,7.925351130441889 A 145.54656871382196 145.54656871382196 0 0 1 82.97195501766947,10.348323937342968"/><text text-anchor="middle" pointer-events="none" font-size="8px" fill="#000000" x="59.71764963738012" y="14.39942156623556" font-family="sans-serif">twowheeler</text></g><g class="relationship" transform="translate(-13.774052360343688 -17.750748472927896) rotate(342.8531630216951)"><path class="outline" fill="#A5ABB6" stroke="none" d="M 24.018736134675446,-6.953439040707552 L 24.277555179777966,-5.987513214418485 A 144.54656871382196 144.54656871382196 0 0 1 50.103481096436305,-10.447779103608326 L 50.023330601867066,-11.444561877446375 A 145.54656871382196 145.54656871382196 0 0 0 24.018736134675446,-6.953439040707552 Z M 69.4071604789664,-11.708029506489822 L 69.35413140050694,-10.709436537939723 A 144.54656871382196 144.54656871382196 0 0 1 95.2917432745448,-6.952747633230565 L 94.59433239499765,-4.034937141596595 L 102.21620290161526,-5.811757329559552 L 96.22162444727434,-10.84316162207586 L 95.52421356772719,-7.925351130441889 A 145.54656871382196 145.54656871382196 0 0 0 69.4071604789664,-11.708029506489822"/><text text-anchor="middle" pointer-events="none" font-size="8px" fill="#000000" x="59.7176496373801" y="-8.39942156623556" font-family="sans-serif">trek</text></g><g class="relationship" transform="translate(50.64655776491274 104.73250643200262) rotate(242.25767514307245)"><path class="outline" fill="#A5ABB6" stroke="none" d="M 24.018736134675446,6.953439040707552 L 24.277555179777966,5.987513214418485 A 167.98049061276978 167.98049061276978 0 0 0 56.029118917975296,11.301609789585285 L 55.95931922638444,12.299170816818105 A 168.98049061276978 168.98049061276978 0 0 1 24.018736134675446,6.953439040707552 Z M 75.33788125076853,12.541045459388585 L 75.29300165628257,11.54205305601468 A 167.98049061276978 167.98049061276978 0 0 0 107.167309572807,7.022106477393398 L 106.46342061392245,4.105851973143051 L 114.08921824253856,5.865741324037858 L 108.10582818465305,10.91044581639386 L 107.4019392257685,7.994191312143513 A 168.98049061276978 168.98049061276978 0 0 1 75.33788125076853,12.541045459388585"/><text text-anchor="middle" pointer-events="none" font-size="8px" fill="#000000" x="65.65137015463911" y="15.198187437151262" transform="rotate(180 65.65137015463911 12.198187437151262)" font-family="sans-serif">trek</text></g><g class="relationship" transform="translate(194.78672587218264 146.2291406359647) rotate(196.06062504058536)"><path class="outline" fill="#A5ABB6" stroke="none" d="M 24.018736134675446,6.953439040707552 L 24.277555179777966,5.987513214418485 A 190.82699559207956 190.82699559207956 0 0 0 48.339958205001466,10.801554384414288 L 48.207234542528454,11.792707465133788 A 191.82699559207956 191.82699559207956 0 0 1 24.018736134675446,6.953439040707552 Z M 94.72606793721707,12.330356518699773 L 94.61628749722469,11.33640065700618 A 190.82699559207956 190.82699559207956 0 0 0 118.783526168366,7.079781488372106 L 118.07425057447509,4.164832409586904 L 125.70328661784662,5.910629949090863 L 119.72922696022053,10.96638026008571 L 119.01995136632962,8.051431181300508 A 191.82699559207956 191.82699559207956 0 0 1 94.72606793721707,12.330356518699773"/><text text-anchor="middle" pointer-events="none" font-size="8px" fill="#000000" x="71.45607047563266" y="15.977007999191443" transform="rotate(180 71.45607047563266 12.977007999191443)" font-family="sans-serif">twowheeler</text></g><g class="relationship" transform="translate(262.4856066084121 235.50438533762238) rotate(528.1443467749971)"><path class="outline" fill="#A5ABB6" stroke="none" d="M 24.018736134675446,-6.953439040707552 L 24.277555179777966,-5.987513214418485 A 104.2438426624902 104.2438426624902 0 0 1 38.65544498304688,-8.774957928054604 L 38.53455149245236,-9.767623412461049 A 105.2438426624902 105.2438426624902 0 0 0 24.018736134675446,-6.953439040707552 Z M 60.62640297882286,-10.121723410403575 L 60.537385362719974,-9.125693358636383 A 104.2438426624902 104.2438426624902 0 0 1 74.99722365857336,-6.800475157199388 L 74.31403577744547,-3.8793017082101007 L 81.92715968640302,-5.693232342732503 L 75.90814083341056,-10.695373089185106 L 75.22495295228266,-7.7741996401958176 A 105.2438426624902 105.2438426624902 0 0 0 60.62640297882286,-10.121723410403575"/><text text-anchor="middle" pointer-events="none" font-size="8px" fill="#000000" x="49.57917235069165" y="-7.0260835345623605" transform="rotate(180 49.57917235069165 -10.02608353456236)" font-family="sans-serif">road</text></g><g class="relationship" transform="translate(158.4822610985614 257.3372684038162) rotate(257.7990885742789)"><path class="outline" fill="#A5ABB6" stroke="none" d="M 21.40063509461097,-12.933012701892217 L 21.90063509461097,-12.06698729810778 A 64.51508743106214 64.51508743106214 0 0 1 42.71283919083582,-19.687019970113838 L 42.5354335625549,-20.67115778721785 A 65.51508743106214 65.51508743106214 0 0 0 21.40063509461097,-12.933012701892217 Z M 61.93720786891764,-21.246903603742567 L 61.81847141653999,-20.253977798419342 A 64.51508743106214 64.51508743106214 0 0 1 83.04590290620003,-13.881467334155822 L 81.70260204838473,-11.19901643891231 L 89.5288384714041,-11.194173815127403 L 84.83697071662041,-17.458068527813836 L 83.49366985880512,-14.775617632570324 A 65.51508743106214 65.51508743106214 0 0 0 61.93720786891764,-21.246903603742567"/><text text-anchor="middle" pointer-events="none" font-size="8px" fill="#000000" x="52.22971116055886" y="-18.181762835492535" transform="rotate(180 52.22971116055886 -21.181762835492535)" font-family="sans-serif">trek</text></g><g class="relationship" transform="translate(134.83695472469822 147.9818169671497) rotate(297.4718396744794)"><path class="outline" fill="#A5ABB6" stroke="none" d="M 21.40063509461097,12.933012701892217 L 21.90063509461097,12.06698729810778 A 82.26412733380728 82.26412733380728 0 0 0 51.33533465619742,22.252403510716434 L 51.19314188658531,23.242242495738765 A 83.26412733380728 83.26412733380728 0 0 1 21.40063509461097,12.933012701892217 Z M 70.59258290987442,23.74438421673179 L 70.50178889821017,22.748514522722616 A 82.26412733380728 82.26412733380728 0 0 0 100.42400492930123,14.099512875500851 L 99.060422501104,11.427314723882652 L 106.88639768777657,11.363186901643658 L 102.24211483356422,17.662443744325117 L 100.87853240536698,14.990245592706918 A 83.26412733380728 83.26412733380728 0 0 1 70.59258290987442,23.74438421673179"/><text text-anchor="middle" pointer-events="none" font-size="8px" fill="#000000" x="60.891121283825065" y="26.560578522220666" font-family="sans-serif">trek</text></g><g class="relationship" transform="translate(134.83695472469822 147.9818169671497) rotate(297.4718396744794)"><path class="outline" fill="#A5ABB6" stroke="none" d="M 25 0.5 L 50.06220583142505 0.5 L 50.06220583142505 -0.5 L 25 -0.5 Z M 72.09250978650317 0.5 L 97.15471561792822 0.5 L 97.15471561792822 3.5 L 104.15471561792822 0 L 97.15471561792822 -3.5 L 97.15471561792822 -0.5 L 72.09250978650317 -0.5 Z"/><text text-anchor="middle" pointer-events="none" font-size="8px" fill="#000000" x="61.07735780896411" y="3" font-family="sans-serif">road</text></g><g class="relationship" transform="translate(134.83695472469822 147.9818169671497) rotate(297.4718396744794)"><path class="outline" fill="#A5ABB6" stroke="none" d="M 21.40063509461097,-12.933012701892217 L 21.90063509461097,-12.06698729810778 A 82.26412733380728 82.26412733380728 0 0 1 38.18116937280256,-19.24474808759686 L 37.87907500683584,-20.19802611317553 A 83.26412733380728 83.26412733380728 0 0 0 21.40063509461097,-12.933012701892217 Z M 84.0463104548363,-21.393034517465054 L 83.79393752586681,-20.425404472084395 A 82.26412733380728 82.26412733380728 0 0 1 100.42400492930123,-14.099512875500851 L 99.060422501104,-11.427314723882652 L 106.88639768777657,-11.363186901643658 L 102.24211483356422,-17.662443744325117 L 100.87853240536698,-14.990245592706918 A 83.26412733380728 83.26412733380728 0 0 0 84.0463104548363,-21.393034517465054"/><text text-anchor="middle" pointer-events="none" font-size="8px" fill="#000000" x="60.89112128382506" y="-20.560578522220666" font-family="sans-serif">twowheeler</text></g><g class="relationship" transform="translate(158.4822610985614 257.3372684038162) rotate(257.7990885742789)"><path class="outline" fill="#A5ABB6" stroke="none" d="M 25 0.5 L 41.42614598834429 0.5 L 41.42614598834429 -0.5 L 25 -0.5 Z M 63.45644994342241 0.5 L 79.8825959317667 0.5 L 79.8825959317667 3.5 L 86.8825959317667 0 L 79.8825959317667 -3.5 L 79.8825959317667 -0.5 L 63.45644994342241 -0.5 Z"/><text text-anchor="middle" pointer-events="none" font-size="8px" fill="#000000" x="52.44129796588335" y="3" transform="rotate(180 52.44129796588335 0)" font-family="sans-serif">road</text></g><g class="relationship" transform="translate(158.4822610985614 257.3372684038162) rotate(257.7990885742789)"><path class="outline" fill="#A5ABB6" stroke="none" d="M 21.40063509461097,12.933012701892217 L 21.90063509461097,12.06698729810778 A 64.51508743106214 64.51508743106214 0 0 0 29.785992461754535,15.929636580433005 L 29.40821747424591,16.855534014716554 A 65.51508743106214 65.51508743106214 0 0 1 21.40063509461097,12.933012701892217 Z M 75.26758195183582,18.216406315854265 L 74.94537520573469,17.269736989866082 A 64.51508743106214 64.51508743106214 0 0 0 83.04590290620003,13.881467334155822 L 81.70260204838473,11.19901643891231 L 89.5288384714041,11.194173815127403 L 84.83697071662041,17.458068527813836 L 83.49366985880512,14.775617632570324 A 65.51508743106214 65.51508743106214 0 0 1 75.26758195183582,18.216406315854265"/><text text-anchor="middle" pointer-events="none" font-size="8px" fill="#000000" x="52.22971116055885" y="24.181762835492535" transform="rotate(180 52.22971116055885 21.181762835492535)" font-family="sans-serif">twowheeler</text></g><g class="relationship" transform="translate(262.4856066084121 235.50438533762238) rotate(528.1443467749971)"><path class="outline" fill="#A5ABB6" stroke="none" d="M 24.018736134675446,6.953439040707552 L 24.277555179777966,5.987513214418485 A 104.2438426624902 104.2438426624902 0 0 0 39.98865768071985,8.9286229925018 L 39.880553556514954,9.922762569387203 A 105.2438426624902 105.2438426624902 0 0 1 24.018736134675446,6.953439040707552 Z M 59.27612032123312,10.233645075351802 L 59.19993274462168,9.236551572629978 A 104.2438426624902 104.2438426624902 0 0 0 74.99722365857336,6.800475157199388 L 74.31403577744547,3.8793017082101007 L 81.92715968640302,5.693232342732503 L 75.90814083341056,10.695373089185106 L 75.22495295228266,7.7741996401958176 A 105.2438426624902 105.2438426624902 0 0 1 59.27612032123312,10.233645075351802"/><text text-anchor="middle" pointer-events="none" font-size="8px" fill="#000000" x="49.57917235069168" y="13.02608353456236" transform="rotate(180 49.57917235069168 10.02608353456236)" font-family="sans-serif">trek</text></g><g class="relationship" transform="translate(50.64655776491274 104.73250643200262) rotate(191.35557351660395)"><path class="outline" fill="#A5ABB6" stroke="none" d="M 24.018736134675446,-6.953439040707552 L 24.277555179777966,-5.987513214418485 A 125.78387652242823 125.78387652242823 0 0 1 31.991596675961667,-7.7961360883847135 L 31.794105375793198,-8.77644072795232 A 126.78387652242823 126.78387652242823 0 0 0 24.018736134675446,-6.953439040707552 Z M 78.22491189298893,-9.455732415727383 L 78.05618307281755,-8.47006990490354 A 125.78387652242823 125.78387652242823 0 0 1 85.8198326898504,-6.887888648212782 L 85.1284798193398,-3.9686368248106385 L 92.74664575620717,-5.761273920921722 L 86.74163651719788,-10.780224412748975 L 86.05028364668728,-7.86097258934683 A 126.78387652242823 126.78387652242823 0 0 0 78.22491189298893,-9.455732415727383"/><text text-anchor="middle" pointer-events="none" font-size="8px" fill="#000000" x="54.98545812633333" y="-7.759981979902847" transform="rotate(180 54.98545812633333 -10.759981979902847)" font-family="sans-serif">twowheeler</text></g><g class="relationship" transform="translate(-64.13536742467406 81.68101514449029) rotate(327.79913407103527)"><path class="outline" fill="#A5ABB6" stroke="none" d="M 25 0.5 L 43.46758632469837 0.5 L 43.46758632469837 -0.5 L 25 -0.5 Z M 62.80091934014026 0.5 L 81.26850566483863 0.5 L 81.26850566483863 3.5 L 88.26850566483863 0 L 81.26850566483863 -3.5 L 81.26850566483863 -0.5 L 62.80091934014026 -0.5 Z"/><text text-anchor="middle" pointer-events="none" font-size="8px" fill="#000000" x="53.134252832419314" y="3" font-family="sans-serif">trek</text></g><g class="relationship" transform="translate(31.71075578468678 21.321467090502995) rotate(314.6399574333709)"><path class="outline" fill="#A5ABB6" stroke="none" d="M 25 0.5 L 40.50338334672275 0.5 L 40.50338334672275 -0.5 L 25 -0.5 Z M 59.836716362164644 0.5 L 75.3400997088874 0.5 L 75.3400997088874 3.5 L 82.3400997088874 0 L 75.3400997088874 -3.5 L 75.3400997088874 -0.5 L 59.836716362164644 -0.5 Z"/><text text-anchor="middle" pointer-events="none" font-size="8px" fill="#000000" x="50.1700498544437" y="3" font-family="sans-serif">trek</text></g><g class="relationship" transform="translate(-64.13536742467406 81.68101514449029) rotate(296.8618134939464)"><path class="outline" fill="#A5ABB6" stroke="none" d="M 21.40063509461097,12.933012701892217 L 21.90063509461097,12.06698729810778 A 64.07714635413218 64.07714635413218 0 0 0 29.58226052688335,15.841909235520205 L 29.20214141842335,16.766846781186715 A 65.07714635413218 65.07714635413218 0 0 1 21.40063509461097,12.933012701892217 Z M 75.05030790112053,18.132299656643738 L 74.72590677396349,17.18638004658206 A 64.07714635413218 64.07714635413218 0 0 0 82.61856817160673,13.875292464315033 L 81.27584171459057,11.192554001171661 L 89.10207899511062,11.18938714180125 L 84.40887011429493,17.45227708183953 L 83.06614365727877,14.769538618696158 A 65.07714635413218 65.07714635413218 0 0 1 75.05030790112053,18.132299656643738"/><text text-anchor="middle" pointer-events="none" font-size="8px" fill="#000000" x="52.01682014396885" y="24.123077112500596" font-family="sans-serif">twowheeler</text></g><g class="relationship" transform="translate(-64.13536742467406 81.68101514449029) rotate(296.8618134939464)"><path class="outline" fill="#A5ABB6" stroke="none" d="M 25 0.5 L 42.56244991959843 0.5 L 42.56244991959843 -0.5 L 25 -0.5 Z M 61.89578293504032 0.5 L 79.45823285463875 0.5 L 79.45823285463875 3.5 L 86.45823285463875 0 L 79.45823285463875 -3.5 L 79.45823285463875 -0.5 L 61.89578293504032 -0.5 Z"/><text text-anchor="middle" pointer-events="none" font-size="8px" fill="#000000" x="52.229116427319376" y="3" font-family="sans-serif">trek</text></g><g class="relationship" transform="translate(-64.13536742467406 81.68101514449029) rotate(296.8618134939464)"><path class="outline" fill="#A5ABB6" stroke="none" d="M 21.40063509461097,-12.933012701892217 L 21.90063509461097,-12.06698729810778 A 64.07714635413218 64.07714635413218 0 0 1 41.18726671904566,-19.37000179508886 L 40.98825752031893,-20.349999416934004 A 65.07714635413218 65.07714635413218 0 0 0 21.40063509461097,-12.933012701892217 Z M 63.071842958379364,-21.007694098098213 L 62.93150744586311,-20.017590091477295 A 64.07714635413218 64.07714635413218 0 0 1 82.61856817160673,-13.875292464315033 L 81.27584171459057,-11.192554001171661 L 89.10207899511062,-11.18938714180125 L 84.40887011429493,-17.45227708183953 L 83.06614365727877,-14.769538618696158 A 65.07714635413218 65.07714635413218 0 0 0 63.071842958379364,-21.007694098098213"/><text text-anchor="middle" pointer-events="none" font-size="8px" fill="#000000" x="52.01682014396883" y="-18.12307711250058" font-family="sans-serif">road</text></g><g class="relationship" transform="translate(50.64655776491274 104.73250643200262) rotate(191.35557351660395)"><path class="outline" fill="#A5ABB6" stroke="none" d="M 24.018736134675446,6.953439040707552 L 24.277555179777966,5.987513214418485 A 125.78387652242823 125.78387652242823 0 0 0 45.38019707893227,9.751029277012023 L 45.28914708724568,10.74687560000261 A 126.78387652242823 126.78387652242823 0 0 1 24.018736134675446,6.953439040707552 Z M 64.67800262281149,11.03053830992998 L 64.61612421328978,10.032454614824687 A 125.78387652242823 125.78387652242823 0 0 0 85.8198326898504,6.887888648212782 L 85.1284798193398,3.9686368248106385 L 92.74664575620717,5.761273920921722 L 86.74163651719788,10.780224412748975 L 86.05028364668728,7.86097258934683 A 126.78387652242823 126.78387652242823 0 0 1 64.67800262281149,11.03053830992998"/><text text-anchor="middle" pointer-events="none" font-size="8px" fill="#000000" x="54.98545812633333" y="13.759981979902847" transform="rotate(180 54.98545812633333 10.759981979902847)" font-family="sans-serif">trek</text></g><g class="relationship" transform="translate(194.78672587218264 146.2291406359647) rotate(468.09474949444365)"><path class="outline" fill="#A5ABB6" stroke="none" d="M 25 0.5 L 45.27781616296474 0.5 L 45.27781616296474 -0.5 L 25 -0.5 Z M 64.61114917840663 0.5 L 84.88896534137137 0.5 L 84.88896534137137 3.5 L 91.88896534137137 0 L 84.88896534137137 -3.5 L 84.88896534137137 -0.5 L 64.61114917840663 -0.5 Z"/><text text-anchor="middle" pointer-events="none" font-size="8px" fill="#000000" x="54.94448267068569" y="3" transform="rotate(180 54.94448267068569 0)" font-family="sans-serif">trek</text></g></g><g class="layer nodes"><g class="node" transform="translate(262.4856066084121,235.50438533762238)"><circle class="outline" cx="0" cy="0" r="25" fill="#8DCC93" stroke="#5db665" stroke-width="2px"/><text text-anchor="middle" pointer-events="none" font-family="sans-serif" dy="1.5625" font-size="25" fill="#604A0E"/><text text-anchor="middle" pointer-events="none" y="5" font-size="10px" fill="#604A0E" font-family="sans-serif"> Darjeeling</text></g><g class="node" transform="translate(194.78672587218264,146.2291406359647)"><circle class="outline" cx="0" cy="0" r="25" fill="#8DCC93" stroke="#5db665" stroke-width="2px"/><text text-anchor="middle" pointer-events="none" font-family="sans-serif" dy="1.5625" font-size="25" fill="#604A0E"/><text text-anchor="middle" pointer-events="none" y="5" font-size="10px" fill="#604A0E" font-family="sans-serif"> Rimbik</text></g><g class="node" transform="translate(194.4176524111162,33.39088787785584)"><circle class="outline" cx="0" cy="0" r="25" fill="#4C8EDA" stroke="#2870c2" stroke-width="2px"/><text text-anchor="middle" pointer-events="none" font-family="sans-serif" dy="1.5625" font-size="25" fill="#FFFFFF"/><text text-anchor="middle" pointer-events="none" y="5" font-size="10px" fill="#FFFFFF" font-family="sans-serif"> BhikeBh…</text></g><g class="node" transform="translate(107.13321686123462,-55.054899481038724)"><circle class="outline" cx="0" cy="0" r="25" fill="#ECB5C9" stroke="#da7298" stroke-width="2px"/><text text-anchor="middle" pointer-events="none" font-family="sans-serif" dy="1.5625" font-size="25" fill="#604A0E"/><text text-anchor="middle" pointer-events="none" y="5" font-size="10px" fill="#604A0E" font-family="sans-serif"> Sandak…</text></g><g class="node" transform="translate(50.64655776491274,104.73250643200262)"><circle class="outline" cx="0" cy="0" r="25" fill="#4C8EDA" stroke="#2870c2" stroke-width="2px"/><text text-anchor="middle" pointer-events="none" font-family="sans-serif" dy="1.5625" font-size="25" fill="#FFFFFF"/><text text-anchor="middle" pointer-events="none" y="5" font-size="10px" fill="#FFFFFF" font-family="sans-serif"> Sirikhola</text></g><g class="node" transform="translate(-13.774052360343688,-17.750748472927896)"><circle class="outline" cx="0" cy="0" r="25" fill="#4C8EDA" stroke="#2870c2" stroke-width="2px"/><text text-anchor="middle" pointer-events="none" font-family="sans-serif" dy="1.5625" font-size="25" fill="#FFFFFF"/><text text-anchor="middle" pointer-events="none" y="5" font-size="10px" fill="#FFFFFF" font-family="sans-serif"> Gurdum</text></g><g class="node" transform="translate(158.4822610985614,257.3372684038162)"><circle class="outline" cx="0" cy="0" r="25" fill="#4C8EDA" stroke="#2870c2" stroke-width="2px"/><text text-anchor="middle" pointer-events="none" font-family="sans-serif" dy="1.5625" font-size="25" fill="#FFFFFF"/><text text-anchor="middle" pointer-events="none" y="5" font-size="10px" fill="#FFFFFF" font-family="sans-serif"> Tumbling</text></g><g class="node" transform="translate(134.83695472469822,147.9818169671497)"><circle class="outline" cx="0" cy="0" r="25" fill="#4C8EDA" stroke="#2870c2" stroke-width="2px"/><text text-anchor="middle" pointer-events="none" font-family="sans-serif" dy="1.5625" font-size="25" fill="#FFFFFF"/><text text-anchor="middle" pointer-events="none" y="5" font-size="10px" fill="#FFFFFF" font-family="sans-serif"> Gairibus</text></g><g class="node" transform="translate(-64.13536742467406,81.68101514449029)"><circle class="outline" cx="0" cy="0" r="25" fill="#4C8EDA" stroke="#2870c2" stroke-width="2px"/><text text-anchor="middle" pointer-events="none" font-family="sans-serif" dy="1.5625" font-size="25" fill="#FFFFFF"/><text text-anchor="middle" pointer-events="none" y="5" font-size="10px" fill="#FFFFFF" font-family="sans-serif"> Rammam</text></g><g class="node" transform="translate(31.71075578468678,21.321467090502995)"><circle class="outline" cx="0" cy="0" r="25" fill="#ECB5C9" stroke="#da7298" stroke-width="2px"/><text text-anchor="middle" pointer-events="none" font-family="sans-serif" dy="1.5625" font-size="25" fill="#604A0E"/><text text-anchor="middle" pointer-events="none" y="5" font-size="10px" fill="#604A0E" font-family="sans-serif"> Sabargr…</text></g></g></svg>