<svg xmlns="http://www.w3.org/2000/svg" width="404.9763488769531" height="333.57818603515625" viewBox="-110.59235382080078 -73.41127014160156 404.9763488769531 333.57818603515625"><title>Neo4j Graph Visualization</title><desc>Created using Neo4j (http://www.neo4j.com/)</desc><g class="layer relationships"><g class="relationship" transform="translate(265.38399531544405 17.676513416002738) rotate(222.69227449446146)"><path class="outline" fill="#A5ABB6" stroke="none" d="M 24.018736134675446,-6.953439040707552 L 24.277555179777966,-5.987513214418485 A 74.67403537123731 74.67403537123731 0 0 1 31.34277180844613,-7.51836217173728 L 31.178566863057707,-8.50478841627357 A 75.67403537123731 75.67403537123731 0 0 0 24.018736134675446,-6.953439040707552 Z M 53.27237608960776,-8.91187501350305 L 53.14462079898969,-7.9200692937579475 A 74.67403537123731 74.67403537123731 0 0 1 60.26143562486035,-6.650529505330321 L 59.592254516586024,-3.7261156077555015 L 67.19659823724731,-5.576509235619368 L 61.15367710255944,-10.549748035430081 L 60.48449599428512,-7.625334137855261 A 75.67403537123731 75.67403537123731 0 0 0 53.27237608960776,-8.91187501350305"/><text text-anchor="middle" pointer-events="none" font-size="8px" fill="#000000" x="42.21974339334264" y="-6.019211939583073" transform="rotate(180 42.21974339334264 -9.019211939583073)" font-family="sans-serif">road</text></g><g class="relationship" transform="translate(198.08190848098613 -44.411265008655526) rotate(434.7788913963361)"><path class="outline" fill="#A5ABB6" stroke="none" d="M 21.40063509461097,-12.933012701892217 L 21.90063509461097,-12.06698729810778 A 87.61546701780914 87.61546701780914 0 0 1 53.94919877377569,-23.012529006152945 L 53.81498537253514,-24.00348145855793 A 88.61546701780914 88.61546701780914 0 0 0 21.40063509461097,-12.933012701892217 Z M 73.21302427334886,-24.486885611302398 L 73.12833639749164,-23.490478082385238 A 87.61546701780914 87.61546701780914 0 0 1 105.68231212009356,-14.15484838577242 L 104.313583120163,-11.485282704851812 L 112.13942020889672,-11.406074999421238 L 107.50728412000095,-17.714269293666565 L 106.1385551200704,-15.044703612745957 A 88.61546701780914 88.61546701780914 0 0 0 73.21302427334886,-24.486885611302398"/><text text-anchor="middle" pointer-events="none" font-size="8px" fill="#000000" x="63.51318986535582" y="-21.277886147990984" font-family="sans-serif">trek</text></g><g class="relationship" transform="translate(233.36418651628964 85.26025975938309) rotate(491.8014960558241)"><path class="outline" fill="#A5ABB6" stroke="none" d="M 21.40063509461097,12.933012701892217 L 21.90063509461097,12.06698729810778 A 66.20770505424477 66.20770505424477 0 0 0 43.531296562118165,19.935460855615332 L 43.35800568834124,20.9203315441149 A 67.20770505424477 67.20770505424477 0 0 1 21.40063509461097,12.933012701892217 Z M 62.759841983812,21.488178269722965 L 62.64444815574096,20.49485844990504 A 66.20770505424477 66.20770505424477 0 0 0 84.69827354402285,13.90492845101515 L 83.3527903001333,11.223571548174272 L 91.17902019129983,11.212360365746324 L 86.49225120254228,17.480070988136323 L 85.14676795865272,14.798714085295442 A 67.20770505424477 67.20770505424477 0 0 1 62.759841983812,21.488178269722965"/><text text-anchor="middle" pointer-events="none" font-size="8px" fill="#000000" x="53.05294355730944" y="24.408585379227134" transform="rotate(180 53.05294355730944 21.408585379227134)" font-family="sans-serif">trek</text></g><g class="relationship" transform="translate(157.69477055121857 169.887448684196) rotate(509.50030990272234)"><path class="outline" fill="#A5ABB6" stroke="none" d="M 25 0.5 L 47.20317945122413 0.5 L 47.20317945122413 -0.5 L 25 -0.5 Z M 66.53651246666603 0.5 L 88.73969191789016 0.5 L 88.73969191789016 3.5 L 95.73969191789016 0 L 88.73969191789016 -3.5 L 88.73969191789016 -0.5 L 66.53651246666603 -0.5 Z"/><text text-anchor="middle" pointer-events="none" font-size="8px" fill="#000000" x="56.86984595894508" y="3" transform="rotate(180 56.86984595894508 0)" font-family="sans-serif">trek</text></g><g class="relationship" transform="translate(265.38399531544405 17.676513416002738) rotate(222.69227449446146)"><path class="outline" fill="#A5ABB6" stroke="none" d="M 24.018736134675446,6.953439040707552 L 24.277555179777966,5.987513214418485 A 74.67403537123731 74.67403537123731 0 0 0 32.66600780358164,7.726454742093907 L 32.519523020074885,8.715667665685672 A 75.67403537123731 75.67403537123731 0 0 1 24.018736134675446,6.953439040707552 Z M 51.92456169854793,9.073212672240402 L 51.81461719844008,8.079274944364045 A 74.67403537123731 74.67403537123731 0 0 0 60.26143562486035,6.650529505330321 L 59.592254516586024,3.7261156077555015 L 67.19659823724731,5.576509235619368 L 61.15367710255944,10.549748035430081 L 60.48449599428512,7.625334137855261 A 75.67403537123731 75.67403537123731 0 0 1 51.92456169854793,9.073212672240402"/><text text-anchor="middle" pointer-events="none" font-size="8px" fill="#000000" x="42.219743393342654" y="12.019211939583073" transform="rotate(180 42.219743393342654 9.019211939583073)" font-family="sans-serif">trek</text></g><g class="relationship" transform="translate(265.38399531544405 17.676513416002738) rotate(527.8348586978042)"><path class="outline" fill="#A5ABB6" stroke="none" d="M 21.40063509461097,12.933012701892217 L 21.90063509461097,12.06698729810778 A 80.70384769693682 80.70384769693682 0 0 0 30.34725157657906,16.304767578769457 L 29.951913457307313,17.223303245714774 A 81.70384769693682 81.70384769693682 0 0 1 21.40063509461097,12.933012701892217 Z M 90.5822504033509,18.81056215187367 L 90.23551408359575,17.872599506262105 A 80.70384769693682 80.70384769693682 0 0 0 98.89229278870701,14.0825738927138 L 97.53028583769202,11.409572384037299 L 105.35629746745468,11.35005792512491 L 100.708302056727,17.646575904282468 L 99.34629510571202,14.973574395605969 A 81.70384769693682 81.70384769693682 0 0 1 90.5822504033509,18.81056215187367"/><text text-anchor="middle" pointer-events="none" font-size="8px" fill="#000000" x="60.12742833314742" y="26.351440270305062" transform="rotate(180 60.12742833314742 23.351440270305062)" font-family="sans-serif">PublicTransport</text></g><g class="relationship" transform="translate(140.61873783021318 44.572271949814265) rotate(302.8532847940565)"><path class="outline" fill="#A5ABB6" stroke="none" d="M 25 0.5 L 39.79578677495661 0.5 L 39.79578677495661 -0.5 L 25 -0.5 Z M 59.129119790398505 0.5 L 73.92490656535512 0.5 L 73.92490656535512 3.5 L 80.92490656535512 0 L 73.92490656535512 -3.5 L 73.92490656535512 -0.5 L 59.129119790398505 -0.5 Z"/><text text-anchor="middle" pointer-events="none" font-size="8px" fill="#000000" x="49.46245328267756" y="3" font-family="sans-serif">trek</text></g><g class="relationship" transform="translate(265.38399531544405 17.676513416002738) rotate(527.8348586978042)"><path class="outline" fill="#A5ABB6" stroke="none" d="M 25 0.5 L 49.300503042340374 0.5 L 49.300503042340374 -0.5 L 25 -0.5 Z M 71.3308069974185 0.5 L 95.63131003975887 0.5 L 95.63131003975887 3.5 L 102.63131003975887 0 L 95.63131003975887 -3.5 L 95.63131003975887 -0.5 L 71.3308069974185 -0.5 Z"/><text text-anchor="middle" pointer-events="none" font-size="8px" fill="#000000" x="60.315655019879436" y="3" transform="rotate(180 60.315655019879436 0)" font-family="sans-serif">road</text></g><g class="relationship" transform="translate(265.38399531544405 17.676513416002738) rotate(527.8348586978042)"><path class="outline" fill="#A5ABB6" stroke="none" d="M 21.40063509461097,-12.933012701892217 L 21.90063509461097,-12.06698729810778 A 80.70384769693682 80.70384769693682 0 0 1 50.574272286189576,-22.02982663933554 L 50.42956683545636,-23.019301415430462 A 81.70384769693682 81.70384769693682 0 0 0 21.40063509461097,-12.933012701892217 Z M 69.82938438487383,-23.52717477939632 L 69.73664915078915,-22.531483975803525 A 80.70384769693682 80.70384769693682 0 0 1 98.89229278870701,-14.0825738927138 L 97.53028583769202,-11.409572384037299 L 105.35629746745468,-11.35005792512491 L 100.708302056727,-17.646575904282468 L 99.34629510571202,-14.973574395605969 A 81.70384769693682 81.70384769693682 0 0 0 69.82938438487383,-23.52717477939632"/><text text-anchor="middle" pointer-events="none" font-size="8px" fill="#000000" x="60.12742833314743" y="-20.351440270305062" transform="rotate(180 60.12742833314743 -23.351440270305062)" font-family="sans-serif">trek</text></g><g class="relationship" transform="translate(198.08190848098613 -44.411265008655526) rotate(434.7788913963361)"><path class="outline" fill="#A5ABB6" stroke="none" d="M 25 0.5 L 52.67774846407849 0.5 L 52.67774846407849 -0.5 L 25 -0.5 Z M 74.70805241915662 0.5 L 102.3858008832351 0.5 L 102.3858008832351 3.5 L 109.3858008832351 0 L 102.3858008832351 -3.5 L 102.3858008832351 -0.5 L 74.70805241915662 -0.5 Z"/><text text-anchor="middle" pointer-events="none" font-size="8px" fill="#000000" x="63.69290044161755" y="3" font-family="sans-serif">road</text></g><g class="relationship" transform="translate(198.08190848098613 -44.411265008655526) rotate(434.7788913963361)"><path class="outline" fill="#A5ABB6" stroke="none" d="M 21.40063509461097,12.933012701892217 L 21.90063509461097,12.06698729810778 A 87.61546701780914 87.61546701780914 0 0 0 40.7503075886176,20.17527329300401 L 40.46544851219649,21.13384269924464 A 88.61546701780914 88.61546701780914 0 0 1 21.40063509461097,12.933012701892217 Z M 86.68892630024172,22.285743735802228 L 86.45216675472682,21.31417545842406 A 87.61546701780914 87.61546701780914 0 0 0 105.68231212009356,14.15484838577242 L 104.313583120163,11.485282704851812 L 112.13942020889672,11.406074999421238 L 107.50728412000095,17.714269293666565 L 106.1385551200704,15.044703612745957 A 88.61546701780914 88.61546701780914 0 0 1 86.68892630024172,22.285743735802228"/><text text-anchor="middle" pointer-events="none" font-size="8px" fill="#000000" x="63.513189865355855" y="27.277886147990984" font-family="sans-serif">twowheeler</text></g><g class="relationship" transform="translate(140.61873783021318 44.572271949814265) rotate(442.240400213571)"><path class="outline" fill="#A5ABB6" stroke="none" d="M 25 0.5 L 50.069961354338105 0.5 L 50.069961354338105 -0.5 L 25 -0.5 Z M 69.40329436978 0.5 L 94.4732557241181 0.5 L 94.4732557241181 3.5 L 101.4732557241181 0 L 94.4732557241181 -3.5 L 94.4732557241181 -0.5 L 69.40329436978 -0.5 Z"/><text text-anchor="middle" pointer-events="none" font-size="8px" fill="#000000" x="59.73662786205905" y="3" font-family="sans-serif">trek</text></g><g class="relationship" transform="translate(233.36418651628964 85.26025975938309) rotate(491.8014960558241)"><path class="outline" fill="#A5ABB6" stroke="none" d="M 25 0.5 L 42.24667854661451 0.5 L 42.24667854661451 -0.5 L 25 -0.5 Z M 64.27698250169263 0.5 L 81.52366104830715 0.5 L 81.52366104830715 3.5 L 88.52366104830715 0 L 81.52366104830715 -3.5 L 81.52366104830715 -0.5 L 64.27698250169263 -0.5 Z"/><text text-anchor="middle" pointer-events="none" font-size="8px" fill="#000000" x="53.261830524153574" y="3" transform="rotate(180 53.261830524153574 0)" font-family="sans-serif">road</text></g><g class="relationship" transform="translate(233.36418651628964 85.26025975938309) rotate(491.8014960558241)"><path class="outline" fill="#A5ABB6" stroke="none" d="M 21.40063509461097,-12.933012701892217 L 21.90063509461097,-12.06698729810778 A 66.20770505424477 66.20770505424477 0 0 1 30.575352993279566,-16.265418931878173 L 30.20637577818899,-17.194857372413097 A 67.20770505424477 67.20770505424477 0 0 0 21.40063509461097,-12.933012701892217 Z M 76.10684521048015,-18.5382575987661 L 75.79285803338914,-17.588830375319027 A 66.20770505424477 66.20770505424477 0 0 1 84.69827354402285,-13.90492845101515 L 83.3527903001333,-11.223571548174272 L 91.17902019129983,-11.212360365746324 L 86.49225120254228,-17.480070988136323 L 85.14676795865272,-14.798714085295442 A 67.20770505424477 67.20770505424477 0 0 0 76.10684521048015,-18.5382575987661"/><text text-anchor="middle" pointer-events="none" font-size="8px" fill="#000000" x="53.05294355730943" y="-18.408585379227134" transform="rotate(180 53.05294355730943 -21.408585379227134)" font-family="sans-serif">twowheeler</text></g><g class="relationship" transform="translate(140.61873783021318 44.572271949814265) rotate(193.5711239981805)"><path class="outline" fill="#A5ABB6" stroke="none" d="M 24.018736134675446,-6.953439040707552 L 24.277555179777966,-5.987513214418485 A 137.92821488046383 137.92821488046383 0 0 1 48.434958969810566,-10.203610690538142 L 48.35128468251535,-11.200103848390029 A 138.92821488046383 138.92821488046383 0 0 0 24.018736134675446,-6.953439040707552 Z M 67.73679953516265,-11.47036736478654 L 67.68093762479401,-10.471928860435895 A 137.92821488046383 137.92821488046383 0 0 1 91.9464872448781,-6.930920891218558 L 91.2511150204623,-4.0126238759181945 L 98.87174231798159,-5.7947685367984025 L 92.87365021076585,-10.82198357828571 L 92.17827798635004,-7.903686562985347 A 138.92821488046383 138.92821488046383 0 0 0 67.73679953516265,-11.47036736478654"/><text text-anchor="middle" pointer-events="none" font-size="8px" fill="#000000" x="58.04629203772268" y="-8.173852263495718" transform="rotate(180 58.04629203772268 -11.173852263495718)" font-family="sans-serif">trek</text></g><g class="relationship" transform="translate(20.867419043061556 15.665255897106803) rotate(511.25009064222434)"><path class="outline" fill="#A5ABB6" stroke="none" d="M 24.018736134675446,-6.953439040707552 L 24.277555179777966,-5.987513214418485 A 125.37115355724737 125.37115355724737 0 0 1 31.889053906902983,-7.774617398654257 L 31.690946584642266,-8.754797733524683 A 126.37115355724737 126.37115355724737 0 0 0 24.018736134675446,-6.953439040707552 Z M 78.12060879763142,-9.435213273526898 L 77.95130899487957,-8.44964867554856 A 125.37115355724737 125.37115355724737 0 0 1 85.61190702081578,-6.886353398462105 L 84.92069754939396,-3.967067618238324 L 92.53877541990823,-5.760078928515157 L 86.5335196493782,-10.778734438760479 L 85.84231017795639,-7.8594486585366985 A 126.37115355724737 126.37115355724737 0 0 0 78.12060879763142,-9.435213273526898"/><text text-anchor="middle" pointer-events="none" font-size="8px" fill="#000000" x="54.88158396990261" y="-7.745917686655659" transform="rotate(180 54.88158396990261 -10.745917686655659)" font-family="sans-serif">twowheeler</text></g><g class="relationship" transform="translate(-81.59235649342705 71.87640275141732) rotate(391.30467742323543)"><path class="outline" fill="#A5ABB6" stroke="none" d="M 21.40063509461097,12.933012701892217 L 21.90063509461097,12.06698729810778 A 56.81119876701233 56.81119876701233 0 0 0 26.237859877121437,14.327959749149386 L 25.8142044161673,15.233783159314818 A 57.81119876701233 57.81119876701233 0 0 1 21.40063509461097,12.933012701892217 Z M 71.43499957766778,16.678847516780664 L 71.06952082008826,15.748027836199014 A 56.81119876701233 56.81119876701233 0 0 0 75.541142472672,13.766080552708344 L 74.2085755558193,11.078281190384281 L 82.03476880423695,11.104724307106009 L 77.31789836180897,17.349813035807095 L 75.98533144495626,14.662013673483033 A 57.81119876701233 57.81119876701233 0 0 1 71.43499957766778,16.678847516780664"/><text text-anchor="middle" pointer-events="none" font-size="8px" fill="#000000" x="48.49178003858359" y="23.14951498538305" font-family="sans-serif">twowheeler</text></g><g class="relationship" transform="translate(7.636995764277699 126.13867701115252) rotate(426.3364036785957)"><path class="outline" fill="#A5ABB6" stroke="none" d="M 24.018736134675446,6.953439040707552 L 24.277555179777966,5.987513214418485 A 121.00205699031675 121.00205699031675 0 0 0 30.80491438112022,7.543884265181134 L 30.600039536337075,8.522672443478712 A 122.00205699031675 122.00205699031675 0 0 1 24.018736134675446,6.953439040707552 Z M 77.01673932873042,9.215200651109498 L 76.84115583586376,8.230736107800425 A 121.00205699031675 121.00205699031675 0 0 0 83.41204087134156,6.869788334543638 L 82.72237865721618,3.950136637781217 L 90.33950519947477,5.747185117711491 L 84.33159049017539,10.762657263560198 L 83.64192827605001,7.843005566797777 A 122.00205699031675 122.00205699031675 0 0 1 77.01673932873042,9.215200651109498"/><text text-anchor="middle" pointer-events="none" font-size="8px" fill="#000000" x="53.782606501696655" y="13.59703736289508" font-family="sans-serif">twowheeler</text></g><g class="relationship" transform="translate(140.61873783021318 44.572271949814265) rotate(193.5711239981805)"><path class="outline" fill="#A5ABB6" stroke="none" d="M 24.018736134675446,6.953439040707552 L 24.277555179777966,5.987513214418485 A 137.92821488046383 137.92821488046383 0 0 0 35.01787702164013,8.410422064344317 L 34.83692690169676,9.39391433889071 A 138.92821488046383 138.92821488046383 0 0 1 24.018736134675446,6.953439040707552 Z M 81.29625713773972,10.041627956736875 L 81.1427947679234,9.053473464235651 A 137.92821488046383 137.92821488046383 0 0 0 91.9464872448781,6.930920891218558 L 91.2511150204623,4.0126238759181945 L 98.87174231798159,5.7947685367984025 L 92.87365021076585,10.82198357828571 L 92.17827798635004,7.903686562985347 A 138.92821488046383 138.92821488046383 0 0 1 81.29625713773972,10.041627956736875"/><text text-anchor="middle" pointer-events="none" font-size="8px" fill="#000000" x="58.046292037722715" y="14.173852263495718" transform="rotate(180 58.046292037722715 11.173852263495718)" font-family="sans-serif">twowheeler</text></g><g class="relationship" transform="translate(20.867419043061556 15.665255897106803) rotate(511.25009064222434)"><path class="outline" fill="#A5ABB6" stroke="none" d="M 24.018736134675446,6.953439040707552 L 24.277555179777966,5.987513214418485 A 125.37115355724737 125.37115355724737 0 0 0 45.2765523958362,9.735530205141742 L 45.18522799858717,10.731351401173995 A 126.37115355724737 126.37115355724737 0 0 1 24.018736134675446,6.953439040707552 Z M 64.5742028574091,11.01549216743966 L 64.51209845138271,10.017422509173215 A 125.37115355724737 125.37115355724737 0 0 0 85.61190702081578,6.886353398462105 L 84.92069754939396,3.967067618238324 L 92.53877541990823,5.760078928515157 L 86.5335196493782,10.778734438760479 L 85.84231017795639,7.8594486585366985 A 126.37115355724737 126.37115355724737 0 0 1 64.5742028574091,11.01549216743966"/><text text-anchor="middle" pointer-events="none" font-size="8px" fill="#000000" x="54.88158396990262" y="13.745917686655659" transform="rotate(180 54.88158396990262 10.745917686655659)" font-family="sans-serif">trek</text></g><g class="relationship" transform="translate(20.867419043061556 15.665255897106803) rotate(456.82928185588315)"><path class="outline" fill="#A5ABB6" stroke="none" d="M 24.018736134675446,-6.953439040707552 L 24.277555179777966,-5.987513214418485 A 114.21422392390025 114.21422392390025 0 0 1 29.126056246076903,-7.17374568647638 L 28.909688140093223,-8.150057543780704 A 115.21422392390025 115.21422392390025 0 0 0 24.018736134675446,-6.953439040707552 Z M 75.30271892330111,-8.862214112384123 L 75.1164194661734,-7.879721103618195 A 114.21422392390025 114.21422392390025 0 0 1 79.99904604922231,-6.842866379864465 L 79.31189850496114,-3.9226218263354586 L 86.92747459816687,-5.72622953550987 L 80.9152427749039,-10.736525784569807 L 80.22809523064272,-7.8162812310408 A 115.21422392390025 115.21422392390025 0 0 0 75.30271892330111,-8.862214112384123"/><text text-anchor="middle" pointer-events="none" font-size="8px" fill="#000000" x="52.07765742761618" y="-7.365755388942546" transform="rotate(180 52.07765742761618 -10.365755388942546)" font-family="sans-serif">twowheeler</text></g><g class="relationship" transform="translate(-81.59235649342705 71.87640275141732) rotate(391.30467742323543)"><path class="outline" fill="#A5ABB6" stroke="none" d="M 25 0.5 L 39.04988190408113 0.5 L 39.04988190408113 -0.5 L 25 -0.5 Z M 58.38321491952303 0.5 L 72.43309682360416 0.5 L 72.43309682360416 3.5 L 79.43309682360416 0 L 72.43309682360416 -3.5 L 72.43309682360416 -0.5 L 58.38321491952303 -0.5 Z"/><text text-anchor="middle" pointer-events="none" font-size="8px" fill="#000000" x="48.71654841180208" y="3" font-family="sans-serif">trek</text></g><g class="relationship" transform="translate(20.867419043061556 15.665255897106803) rotate(456.82928185588315)"><path class="outline" fill="#A5ABB6" stroke="none" d="M 24.018736134675446,6.953439040707552 L 24.277555179777966,5.987513214418485 A 114.21422392390025 114.21422392390025 0 0 0 42.47953842133944,9.313035588367853 L 42.38008642016736,10.308077949005266 A 115.21422392390025 115.21422392390025 0 0 1 24.018736134675446,6.953439040707552 Z M 61.77242961646963,10.60576025935903 L 61.70356608735518,9.60813416990571 A 114.21422392390025 114.21422392390025 0 0 0 79.99904604922231,6.842866379864465 L 79.31189850496114,3.9226218263354586 L 86.92747459816687,5.72622953550987 L 80.9152427749039,10.736525784569807 L 80.22809523064272,7.8162812310408 A 115.21422392390025 115.21422392390025 0 0 1 61.77242961646963,10.60576025935903"/><text text-anchor="middle" pointer-events="none" font-size="8px" fill="#000000" x="52.07765742761619" y="13.365755388942546" transform="rotate(180 52.07765742761619 10.365755388942546)" font-family="sans-serif">trek</text></g><g class="relationship" transform="translate(-81.59235649342705 71.87640275141732) rotate(391.30467742323543)"><path class="outline" fill="#A5ABB6" stroke="none" d="M 21.40063509461097,-12.933012701892217 L 21.90063509461097,-12.06698729810778 A 56.81119876701233 56.81119876701233 0 0 1 37.694217933652226,-18.2606317125356 L 37.47221915844264,-19.23567865694671 A 57.81119876701233 57.81119876701233 0 0 0 21.40063509461097,-12.933012701892217 Z M 59.54708485472654,-19.934912449356922 L 59.387239520713464,-18.947770377923305 A 56.81119876701233 56.81119876701233 0 0 1 75.541142472672,-13.766080552708344 L 74.2085755558193,-11.078281190384281 L 82.03476880423695,-11.104724307106009 L 77.31789836180897,-17.349813035807095 L 75.98533144495626,-14.662013673483033 A 57.81119876701233 57.81119876701233 0 0 0 59.54708485472654,-19.934912449356922"/><text text-anchor="middle" pointer-events="none" font-size="8px" fill="#000000" x="48.491780038583585" y="-17.14951498538305" font-family="sans-serif">road</text></g><g class="relationship" transform="translate(-81.59235649342705 71.87640275141732) rotate(440.92168695835295)"><path class="outline" fill="#A5ABB6" stroke="none" d="M 25 0.5 L 48.72722821106117 0.5 L 48.72722821106117 -0.5 L 25 -0.5 Z M 68.06056122650307 0.5 L 91.78778943756423 0.5 L 91.78778943756423 3.5 L 98.78778943756423 0 L 91.78778943756423 -3.5 L 91.78778943756423 -0.5 L 68.06056122650307 -0.5 Z"/><text text-anchor="middle" pointer-events="none" font-size="8px" fill="#000000" x="58.393894718782114" y="3" font-family="sans-serif">trek</text></g><g class="relationship" transform="translate(-62.0605854155317 194.1135768532405) rotate(377.7546575643432)"><path class="outline" fill="#A5ABB6" stroke="none" d="M 25 0.5 L 47.58811467499198 0.5 L 47.58811467499198 -0.5 L 25 -0.5 Z M 66.92144769043387 0.5 L 89.50956236542585 0.5 L 89.50956236542585 3.5 L 96.50956236542585 0 L 89.50956236542585 -3.5 L 89.50956236542585 -0.5 L 66.92144769043387 -0.5 Z"/><text text-anchor="middle" pointer-events="none" font-size="8px" fill="#000000" x="57.254781182712925" y="3" font-family="sans-serif">trek</text></g><g class="relationship" transform="translate(7.636995764277699 126.13867701115252) rotate(426.3364036785957)"><path class="outline" fill="#A5ABB6" stroke="none" d="M 24.018736134675446,-6.953439040707552 L 24.277555179777966,-5.987513214418485 A 121.00205699031675 121.00205699031675 0 0 1 44.180111806071736,-9.57091762771853 L 44.08577390386323,-10.56645786307162 A 122.00205699031675 122.00205699031675 0 0 0 24.018736134675446,-6.953439040707552 Z M 63.47603529533035,-10.855756822863796 L 63.41143930847332,-9.857845324542453 A 121.00205699031675 121.00205699031675 0 0 1 83.41204087134156,-6.869788334543638 L 82.72237865721618,-3.950136637781217 L 90.33950519947477,-5.747185117711491 L 84.33159049017539,-10.762657263560198 L 83.64192827605001,-7.843005566797777 A 122.00205699031675 122.00205699031675 0 0 0 63.47603529533035,-10.855756822863796"/><text text-anchor="middle" pointer-events="none" font-size="8px" fill="#000000" x="53.78260650169663" y="-7.59703736289508" font-family="sans-serif">trek</text></g></g><g class="layer nodes"><g class="node" transform="translate(265.38399531544405,17.676513416002738)"><circle class="outline" cx="0" cy="0" r="25" fill="#8DCC93" stroke="#5db665" stroke-width="2px"/><text text-anchor="middle" pointer-events="none" font-family="sans-serif" dy="1.5625" font-size="25" fill="#604A0E"/><text text-anchor="middle" pointer-events="none" y="5" font-size="10px" fill="#604A0E" font-family="sans-serif"> Darjeeling</text></g><g class="node" transform="translate(198.08190848098613,-44.411265008655526)"><circle class="outline" cx="0" cy="0" r="25" fill="#4C8EDA" stroke="#2870c2" stroke-width="2px"/><text text-anchor="middle" pointer-events="none" font-family="sans-serif" dy="1.5625" font-size="25" fill="#FFFFFF"/><text text-anchor="middle" pointer-events="none" y="5" font-size="10px" fill="#FFFFFF" font-family="sans-serif"> Tumbling</text></g><g class="node" transform="translate(233.36418651628964,85.26025975938309)"><circle class="outline" cx="0" cy="0" r="25" fill="#4C8EDA" stroke="#2870c2" stroke-width="2px"/><text text-anchor="middle" pointer-events="none" font-family="sans-serif" dy="1.5625" font-size="25" fill="#FFFFFF"/><text text-anchor="middle" pointer-events="none" y="5" font-size="10px" fill="#FFFFFF" font-family="sans-serif"> Gairibus</text></g><g class="node" transform="translate(157.69477055121857,169.887448684196)"><circle class="outline" cx="0" cy="0" r="25" fill="#4C8EDA" stroke="#2870c2" stroke-width="2px"/><text text-anchor="middle" pointer-events="none" font-family="sans-serif" dy="1.5625" font-size="25" fill="#FFFFFF"/><text text-anchor="middle" pointer-events="none" y="5" font-size="10px" fill="#FFFFFF" font-family="sans-serif"> BhikeBh…</text></g><g class="node" transform="translate(53.66159972075658,231.1669115684849)"><circle class="outline" cx="0" cy="0" r="25" fill="#ECB5C9" stroke="#da7298" stroke-width="2px"/><text text-anchor="middle" pointer-events="none" font-family="sans-serif" dy="1.5625" font-size="25" fill="#604A0E"/><text text-anchor="middle" pointer-events="none" y="5" font-size="10px" fill="#604A0E" font-family="sans-serif"> Sandak…</text></g><g class="node" transform="translate(140.61873783021318,44.572271949814265)"><circle class="outline" cx="0" cy="0" r="25" fill="#8DCC93" stroke="#5db665" stroke-width="2px"/><text text-anchor="middle" pointer-events="none" font-family="sans-serif" dy="1.5625" font-size="25" fill="#604A0E"/><text text-anchor="middle" pointer-events="none" y="5" font-size="10px" fill="#604A0E" font-family="sans-serif"> Rimbik</text></g><g class="node" transform="translate(20.867419043061556,15.665255897106803)"><circle class="outline" cx="0" cy="0" r="25" fill="#4C8EDA" stroke="#2870c2" stroke-width="2px"/><text text-anchor="middle" pointer-events="none" font-family="sans-serif" dy="1.5625" font-size="25" fill="#FFFFFF"/><text text-anchor="middle" pointer-events="none" y="5" font-size="10px" fill="#FFFFFF" font-family="sans-serif"> Sirikhola</text></g><g class="node" transform="translate(-81.59235649342705,71.87640275141732)"><circle class="outline" cx="0" cy="0" r="25" fill="#4C8EDA" stroke="#2870c2" stroke-width="2px"/><text text-anchor="middle" pointer-events="none" font-family="sans-serif" dy="1.5625" font-size="25" fill="#FFFFFF"/><text text-anchor="middle" pointer-events="none" y="5" font-size="10px" fill="#FFFFFF" font-family="sans-serif"> Rammam</text></g><g class="node" transform="translate(7.636995764277699,126.13867701115252)"><circle class="outline" cx="0" cy="0" r="25" fill="#4C8EDA" stroke="#2870c2" stroke-width="2px"/><text text-anchor="middle" pointer-events="none" font-family="sans-serif" dy="1.5625" font-size="25" fill="#FFFFFF"/><text text-anchor="middle" pointer-events="none" y="5" font-size="10px" fill="#FFFFFF" font-family="sans-serif"> Gurdum</text></g><g class="node" transform="translate(-62.0605854155317,194.1135768532405)"><circle class="outline" cx="0" cy="0" r="25" fill="#ECB5C9" stroke="#da7298" stroke-width="2px"/><text text-anchor="middle" pointer-events="none" font-family="sans-serif" dy="1.5625" font-size="25" fill="#604A0E"/><text text-anchor="middle" pointer-events="none" y="5" font-size="10px" fill="#604A0E" font-family="sans-serif"> Sabargr…</text></g></g></svg>