<svg xmlns="http://www.w3.org/2000/svg" width="595.5313110351562" height="289.4521179199219" viewBox="-180.31295776367188 -58.44269561767578 595.5313110351562 289.4521179199219"><title>Neo4j Graph Visualization</title><desc>Created using Neo4j (http://www.neo4j.com/)</desc><g class="layer relationships"><g class="relationship" transform="translate(386.21835949683003 189.23952175914823) rotate(196.06415844269753)"><path class="outline" fill="#A5ABB6" stroke="none" d="M 17.324116139070416,-18.03122292025696 L 18.031222920256962,-17.324116139070412 A 172.89783437934304 172.89783437934304 0 0 1 120.18931665609112,-66.79249697314009 L 120.07306802013557,-67.78571711723629 A 173.89783437934304 173.89783437934304 0 0 0 17.324116139070416,-18.03122292025696 Z M 154.53477979691615,-68.38018225049797 L 154.45285625953915,-67.38354363293209 A 172.89783437934304 172.89783437934304 0 0 1 258.25632430938043,-21.468003356139707 L 256.20942989909776,-19.27478123488672 L 263.7149916606845,-17.057453419022245 L 260.985516856424,-24.392299517810354 L 258.9386224461413,-22.199077396557367 A 173.89783437934304 173.89783437934304 0 0 0 154.53477979691615,-68.38018225049797"/><text text-anchor="middle" pointer-events="none" font-size="8px" fill="#000000" x="137.29778329817248" y="-65.43892673330575" transform="rotate(180 137.29778329817248 -68.43892673330575)" font-family="sans-serif">FLIGHT</text></g><g class="relationship" transform="translate(115.23760987616085 111.20854926695651) rotate(195.40771179443288)"><path class="outline" fill="#A5ABB6" stroke="none" d="M 5.987513214418485,24.277555179777966 L 6.953439040707552,24.018736134675446 A 135.17479256720094 135.17479256720094 0 0 0 117.16776650117517,122.666450567711 L 117.01718742236253,123.65504853504854 A 136.17479256720094 136.17479256720094 0 0 1 5.987513214418485,24.277555179777966 Z M 151.46552249916272,124.49199532272786 L 151.36313012542257,123.49725123413026 A 135.17479256720094 135.17479256720094 0 0 0 266.2380242561942,30.318239440336214 L 263.38137266678837,29.401974360381043 L 268.85208470765724,23.805429911715187 L 270.04689304206863,31.539926213609778 L 267.1902414526628,30.623661133654608 A 136.17479256720094 136.17479256720094 0 0 1 151.46552249916272,124.49199532272786"/><text text-anchor="middle" pointer-events="none" font-size="8px" fill="#000000" x="134.22691916384468" y="127.66769252210938" transform="rotate(180 134.22691916384468 124.66769252210938)" font-family="sans-serif">FLIGHT</text></g><g class="relationship" transform="translate(386.21835949683003 189.23952175914823) rotate(196.06415844269753)"><path class="outline" fill="#A5ABB6" stroke="none" d="M 24.018736134675446,-6.953439040707552 L 24.277555179777966,-5.987513214418485 A 448.23169344678183 448.23169344678183 0 0 1 97.91702859824451,-19.253454341198903 L 97.82249841199575,-20.24897633688147 A 449.23169344678183 449.23169344678183 0 0 0 24.018736134675446,-6.953439040707552 Z M 177.1392761108435,-20.746635885637033 L 177.0572453401164,-19.75000608844357 A 448.23169344678183 448.23169344678183 0 0 1 250.85738422844366,-7.409149578790366 L 250.11735001098904,-4.50185713443663 L 257.7644056348448,-6.166951812121859 L 251.84409651838317,-11.285539504595347 L 251.10406230092855,-8.37824706024161 A 449.23169344678183 449.23169344678183 0 0 0 177.1392761108435,-20.746635885637033"/><text text-anchor="middle" pointer-events="none" font-size="8px" fill="#000000" x="137.47301925744125" y="-18.75180540464595" transform="rotate(180 137.47301925744125 -21.75180540464595)" font-family="sans-serif">BUSINESS_FLIGHT</text></g><g class="relationship" transform="translate(115.23760987616085 111.20854926695651) rotate(376.06415844269753)"><path class="outline" fill="#A5ABB6" stroke="none" d="M 24.018736134675446,-6.953439040707552 L 24.277555179777966,-5.987513214418485 A 448.23169344678183 448.23169344678183 0 0 1 120.28983652251304,-20.814279426139592 L 120.24521982576395,-21.813283605495826 A 449.23169344678183 449.23169344678183 0 0 0 24.018736134675446,-6.953439040707552 Z M 154.69869088343245,-22.02945601386972 L 154.66661336746176,-21.029970629799948 A 448.23169344678183 448.23169344678183 0 0 1 250.85738422844366,-7.409149578790366 L 250.11735001098904,-4.50185713443663 L 257.7644056348448,-6.166951812121859 L 251.84409651838317,-11.285539504595347 L 251.10406230092855,-8.37824706024161 A 449.23169344678183 449.23169344678183 0 0 0 154.69869088343245,-22.02945601386972"/><text text-anchor="middle" pointer-events="none" font-size="8px" fill="#000000" x="137.47301925744125" y="-18.75180540464595" font-family="sans-serif">FLIGHT</text></g><g class="relationship" transform="translate(115.23760987616085 111.20854926695651) rotate(195.40771179443288)"><path class="outline" fill="#A5ABB6" stroke="none" d="M 12.698856172145504,21.540405101092272 L 13.549972844582506,21.015428520757713 A 145.6583960987159 145.6583960987159 0 0 0 117.33715031788574,88.80118739103911 L 117.19857188734291,89.79153885319194 A 146.6583960987159 146.6583960987159 0 0 1 12.698856172145504,21.540405101092272 Z M 151.6530035830031,90.52423225728013 L 151.55665218605438,89.52888487656021 A 145.6583960987159 145.6583960987159 0 0 0 258.13170532303064,26.21660042602478 L 255.64761694277703,24.53454664594252 L 262.4705122065982,20.70073650211341 L 261.4438231633688,28.459338799467794 L 258.95973478311515,26.777285019385534 A 146.6583960987159 146.6583960987159 0 0 1 151.6530035830031,90.52423225728013"/><text text-anchor="middle" pointer-events="none" font-size="8px" fill="#000000" x="134.41482202586457" y="93.67354091702087" transform="rotate(180 134.41482202586457 90.67354091702087)" font-family="sans-serif">FLIGHT</text></g><g class="relationship" transform="translate(115.23760987616085 111.20854926695651) rotate(195.40771179443288)"><path class="outline" fill="#A5ABB6" stroke="none" d="M 18.343228848217933,16.993409175968942 L 19.008024713831873,16.246384104727944 A 178.27162240449908 178.27162240449908 0 0 0 117.45636249461339,60.211746505102724 L 117.34380448072775,61.205391659828564 A 179.27162240449908 179.27162240449908 0 0 1 18.343228848217933,16.993409175968942 Z M 151.80631646514124,61.77466458553201 L 151.72663818684532,60.77784395373919 A 178.27162240449908 178.27162240449908 0 0 0 251.5733619479286,20.08804109143671 L 249.65408116450953,17.782317501238094 L 257.27326378896186,15.99400652849205 L 254.1324029924873,23.162339211701532 L 252.21312220906825,20.856615621502915 A 179.27162240449908 179.27162240449908 0 0 1 151.80631646514124,61.77466458553201"/><text text-anchor="middle" pointer-events="none" font-size="8px" fill="#000000" x="134.56960566777587" y="64.82024984878765" transform="rotate(180 134.56960566777587 61.820249848787654)" font-family="sans-serif">FLIGHT</text></g><g class="relationship" transform="translate(115.23760987616085 111.20854926695651) rotate(195.40771179443288)"><path class="outline" fill="#A5ABB6" stroke="none" d="M 22.446385545045896,11.018610437035811 L 22.869003806786598,10.112302649999162 A 271.29272162922166 271.29272162922166 0 0 0 117.52243570807943,34.792115464003956 L 117.44871523958899,35.78939440819434 A 272.29272162922166 272.29272162922166 0 0 1 22.446385545045896,11.018610437035811 Z M 151.91135307975628,36.14986231648382 L 151.85850888050985,35.151259547307774 A 271.29272162922166 271.29272162922166 0 0 0 247.00746102238975,12.456717526610111 L 245.79675549973228,9.711869236192825 L 253.61389128713967,10.089212688812232 L 248.62173505259972,16.116515247166493 L 247.41102952994225,13.371666956749207 A 272.29272162922166 272.29272162922166 0 0 1 151.91135307975628,36.14986231648382"/><text text-anchor="middle" pointer-events="none" font-size="8px" fill="#000000" x="134.6795548634774" y="39.01545161266236" transform="rotate(180 134.6795548634774 36.01545161266236)" font-family="sans-serif">FLIGHT</text></g><g class="relationship" transform="translate(115.23760987616085 111.20854926695651) rotate(195.40771179443288)"><path class="outline" fill="#A5ABB6" stroke="none" d="M 24.663575034869986,4.118017301971641 L 24.808506894177235,3.1285756633906963 A 777.7017136826229 777.7017136826229 0 0 0 117.53950854957333,11.083064366623944 L 117.51381392483034,12.08273420525029 A 778.7017136826229 778.7017136826229 0 0 1 24.663575034869986,4.118017301971641 Z M 151.95714463774146,12.20602940743845 L 151.9386075237998,11.206201234497371 A 777.7017136826229 777.7017136826229 0 0 0 244.72418061689436,3.9157976565831825 L 244.31064706095822,0.944436016170688 L 251.72628003717952,3.446112966134324 L 245.27555869147585,7.877613177133176 L 244.8620251355397,4.9062515367206805 A 778.7017136826229 778.7017136826229 0 0 1 151.95714463774146,12.20602940743845"/><text text-anchor="middle" pointer-events="none" font-size="8px" fill="#000000" x="134.73658731386382" y="14.834845572615109" transform="rotate(180 134.73658731386382 11.834845572615109)" font-family="sans-serif">FLIGHT</text></g><g class="relationship" transform="translate(115.23760987616085 111.20854926695651) rotate(195.40771179443288)"><path class="outline" fill="#A5ABB6" stroke="none" d="M 24.663575034869986,-4.118017301971641 L 24.808506894177235,-3.1285756633906963 A 777.7017136826229 777.7017136826229 0 0 1 95.1182283896822,-10.182935115868986 L 95.06370358523739,-11.181447532266588 A 778.7017136826229 778.7017136826229 0 0 0 24.663575034869986,-4.118017301971641 Z M 174.413132142765,-11.46549102152926 L 174.3657573017316,-10.466613839671027 A 777.7017136826229 777.7017136826229 0 0 1 244.72418061689436,-3.9157976565831825 L 244.31064706095822,-0.944436016170688 L 251.72628003717952,-3.446112966134324 L 245.27555869147585,-7.877613177133176 L 244.8620251355397,-4.9062515367206805 A 778.7017136826229 778.7017136826229 0 0 0 174.413132142765,-11.46549102152926"/><text text-anchor="middle" pointer-events="none" font-size="8px" fill="#000000" x="134.73658731386362" y="-8.834845572615109" transform="rotate(180 134.73658731386362 -11.834845572615109)" font-family="sans-serif">BUSINESS_FLIGHT</text></g><g class="relationship" transform="translate(115.23760987616085 111.20854926695651) rotate(195.40771179443288)"><path class="outline" fill="#A5ABB6" stroke="none" d="M 22.446385545045896,-11.018610437035811 L 22.869003806786598,-10.112302649999162 A 271.29272162922166 271.29272162922166 0 0 1 95.26381881080873,-32.218873368431645 L 95.1080518474341,-33.20666719971476 A 272.29272162922166 272.29272162922166 0 0 0 22.446385545045896,-11.018610437035811 Z M 174.30115170883224,-34.035001095407694 L 174.16608056464543,-33.044165192743634 A 271.29272162922166 271.29272162922166 0 0 1 247.00746102238975,-12.456717526610111 L 245.79675549973228,-9.711869236192825 L 253.61389128713967,-10.089212688812232 L 248.62173505259972,-16.116515247166493 L 247.41102952994225,-13.371666956749207 A 272.29272162922166 272.29272162922166 0 0 0 174.30115170883224,-34.035001095407694"/><text text-anchor="middle" pointer-events="none" font-size="8px" fill="#000000" x="134.6795548634773" y="-33.01545161266236" transform="rotate(180 134.6795548634773 -36.01545161266236)" font-family="sans-serif">BUSINESS_FLIGHT</text></g><g class="relationship" transform="translate(115.23760987616085 111.20854926695651) rotate(195.40771179443288)"><path class="outline" fill="#A5ABB6" stroke="none" d="M 18.343228848217933,-16.993409175968942 L 19.008024713831873,-16.246384104727944 A 178.27162240449908 178.27162240449908 0 0 1 95.4234481300364,-56.30251710722118 L 95.18729829560526,-57.27423376124031 A 179.27162240449908 179.27162240449908 0 0 0 18.343228848217933,-16.993409175968942 Z M 174.08057362587556,-58.577441307048446 L 173.87664669705714,-57.59845519493925 A 178.27162240449908 178.27162240449908 0 0 1 251.5733619479286,-20.08804109143671 L 249.65408116450953,-17.782317501238094 L 257.27326378896186,-15.99400652849205 L 254.1324029924873,-23.162339211701532 L 252.21312220906825,-20.856615621502915 A 179.27162240449908 179.27162240449908 0 0 0 174.08057362587556,-58.577441307048446"/><text text-anchor="middle" pointer-events="none" font-size="8px" fill="#000000" x="134.56960566777582" y="-58.820249848787654" transform="rotate(180 134.56960566777582 -61.820249848787654)" font-family="sans-serif">BUSINESS_FLIGHT</text></g><g class="relationship" transform="translate(115.23760987616085 111.20854926695651) rotate(376.06415844269753)"><path class="outline" fill="#A5ABB6" stroke="none" d="M 17.324116139070416,-18.03122292025696 L 18.031222920256962,-17.324116139070412 A 172.89783437934304 172.89783437934304 0 0 1 98.18171070107597,-62.75911289252045 L 97.93817530045956,-63.729004901275346 A 173.89783437934304 173.89783437934304 0 0 0 17.324116139070416,-18.03122292025696 Z M 176.79641846074168,-65.08931098045986 L 176.58647930578508,-64.11159652765878 A 172.89783437934304 172.89783437934304 0 0 1 258.25632430938043,-21.468003356139707 L 256.20942989909776,-19.27478123488672 L 263.7149916606845,-17.057453419022245 L 260.985516856424,-24.392299517810354 L 258.9386224461413,-22.199077396557367 A 173.89783437934304 173.89783437934304 0 0 0 176.79641846074168,-65.08931098045986"/><text text-anchor="middle" pointer-events="none" font-size="8px" fill="#000000" x="137.29778329817248" y="-65.43892673330575" font-family="sans-serif">BUSINESS_FLIGHT</text></g><g class="relationship" transform="translate(115.23760987616085 111.20854926695651) rotate(195.40771179443288)"><path class="outline" fill="#A5ABB6" stroke="none" d="M 12.698856172145504,-21.540405101092272 L 13.549972844582506,-21.015428520757713 A 145.6583960987159 145.6583960987159 0 0 1 95.50015147004945,-84.01326908427653 L 95.21165378024855,-84.97074967571406 A 146.6583960987159 146.6583960987159 0 0 0 12.698856172145504,-21.540405101092272 Z M 173.8249856763666,-86.64250761566394 L 173.57745314909624,-85.67362803184399 A 145.6583960987159 145.6583960987159 0 0 1 258.13170532303064,-26.21660042602478 L 255.64761694277703,-24.53454664594252 L 262.4705122065982,-20.70073650211341 L 261.4438231633688,-28.459338799467794 L 258.95973478311515,-26.777285019385534 A 146.6583960987159 146.6583960987159 0 0 0 173.8249856763666,-86.64250761566394"/><text text-anchor="middle" pointer-events="none" font-size="8px" fill="#000000" x="134.41482202586457" y="-87.67354091702087" transform="rotate(180 134.41482202586457 -90.67354091702087)" font-family="sans-serif">BUSINESS_FLIGHT</text></g><g class="relationship" transform="translate(115.23760987616085 111.20854926695651) rotate(195.40771179443288)"><path class="outline" fill="#A5ABB6" stroke="none" d="M 5.987513214418485,-24.277555179777966 L 6.953439040707552,-24.018736134675446 A 135.17479256720094 135.17479256720094 0 0 1 95.43001450077787,-117.48706984689727 L 95.11862324990594,-118.43735164135637 A 136.17479256720094 136.17479256720094 0 0 0 5.987513214418485,-24.277555179777966 Z M 173.5916350264444,-120.34390924361702 L 173.3267594786149,-119.37962663765444 A 135.17479256720094 135.17479256720094 0 0 1 266.2380242561942,-30.318239440336214 L 263.38137266678837,-29.401974360381043 L 268.85208470765724,-23.805429911715187 L 270.04689304206863,-31.539926213609778 L 267.1902414526628,-30.623661133654608 A 136.17479256720094 136.17479256720094 0 0 0 173.5916350264444,-120.34390924361702"/><text text-anchor="middle" pointer-events="none" font-size="8px" fill="#000000" x="134.22691916384468" y="-121.66769252210938" transform="rotate(180 134.22691916384468 -124.66769252210938)" font-family="sans-serif">BUSINESS_FLIGHT</text></g></g><g class="layer nodes"><g class="node" transform="translate(386.21835949683003,189.23952175914823)"><circle class="outline" cx="0" cy="0" r="25" fill="#FFC454" stroke="#d7a013" stroke-width="2px"/><text text-anchor="middle" pointer-events="none" font-family="sans-serif" dy="1.5625" font-size="25" fill="#604A0E"/><text text-anchor="middle" pointer-events="none" y="5" font-size="10px" fill="#604A0E" font-family="sans-serif"> MSN</text></g><g class="node" transform="translate(115.23760987616085,111.20854926695651)"><circle class="outline" cx="0" cy="0" r="25" fill="#FFC454" stroke="#d7a013" stroke-width="2px"/><text text-anchor="middle" pointer-events="none" font-family="sans-serif" dy="1.5625" font-size="25" fill="#604A0E"/><text text-anchor="middle" pointer-events="none" y="5" font-size="10px" fill="#604A0E" font-family="sans-serif"> ORD</text></g><g class="node" transform="translate(-151.31295581229494,37.74969113728254)"><circle class="outline" cx="0" cy="0" r="25" fill="#FFC454" stroke="#d7a013" stroke-width="2px"/><text text-anchor="middle" pointer-events="none" font-family="sans-serif" dy="1.5625" font-size="25" fill="#604A0E"/><text text-anchor="middle" pointer-events="none" y="5" font-size="10px" fill="#604A0E" font-family="sans-serif"> GRR</text></g></g></svg>