<svg xmlns="http://www.w3.org/2000/svg" width="288.2000732421875" height="283.38201904296875" viewBox="-51.455299377441406 -41.86086654663086 288.2000732421875 283.38201904296875"><title>Neo4j Graph Visualization</title><desc>Created using Neo4j (http://www.neo4j.com/)</desc><g class="layer relationships"><g class="relationship" transform="translate(151.1302485457203 206.04713504210886) rotate(239.4554205894953)"><path class="outline" fill="#A5ABB6" stroke="none" d="M 25 0.5 L 32.51429364696485 0.5 L 32.51429364696485 -0.5 L 25 -0.5 Z M 78.0900497199629 0.5 L 85.60434336692775 0.5 L 85.60434336692775 3.5 L 92.60434336692775 0 L 85.60434336692775 -3.5 L 85.60434336692775 -0.5 L 78.0900497199629 -0.5 Z"/><text text-anchor="middle" pointer-events="none" font-size="8px" fill="#000000" x="55.302171683463875" y="3" transform="rotate(180 55.302171683463875 0)" font-family="sans-serif">ACTED_IN</text></g><g class="relationship" transform="translate(207.74478092889314 121.270490579534) rotate(188.0732627701134)"><path class="outline" fill="#A5ABB6" stroke="none" d="M 25 0.5 L 32.48564451401727 0.5 L 32.48564451401727 -0.5 L 25 -0.5 Z M 78.06140058701531 0.5 L 85.54704510103258 0.5 L 85.54704510103258 3.5 L 92.54704510103258 0 L 85.54704510103258 -3.5 L 85.54704510103258 -0.5 L 78.06140058701531 -0.5 Z"/><text text-anchor="middle" pointer-events="none" font-size="8px" fill="#000000" x="55.27352255051629" y="3" transform="rotate(180 55.27352255051629 0)" font-family="sans-serif">ACTED_IN</text></g><g class="relationship" transform="translate(181.79850469307772 30.418422753689477) rotate(500.5776672758168)"><path class="outline" fill="#A5ABB6" stroke="none" d="M 25 0.5 L 32.24767000393218 0.5 L 32.24767000393218 -0.5 L 25 -0.5 Z M 77.82342607693022 0.5 L 85.0710960808624 0.5 L 85.0710960808624 3.5 L 92.0710960808624 0 L 85.0710960808624 -3.5 L 85.0710960808624 -0.5 L 77.82342607693022 -0.5 Z"/><text text-anchor="middle" pointer-events="none" font-size="8px" fill="#000000" x="55.0355480404312" y="3" transform="rotate(180 55.0355480404312 0)" font-family="sans-serif">ACTED_IN</text></g><g class="relationship" transform="translate(97.75026695376543 -12.860866277913448) rotate(453.10841021541296)"><path class="outline" fill="#A5ABB6" stroke="none" d="M 25 0.5 L 32.610348454377466 0.5 L 32.610348454377466 -0.5 L 25 -0.5 Z M 78.1861045273755 0.5 L 85.79645298175298 0.5 L 85.79645298175298 3.5 L 92.79645298175298 0 L 85.79645298175298 -3.5 L 85.79645298175298 -0.5 L 78.1861045273755 -0.5 Z"/><text text-anchor="middle" pointer-events="none" font-size="8px" fill="#000000" x="55.39822649087649" y="3" transform="rotate(180 55.39822649087649 0)" font-family="sans-serif">ACTED_IN</text></g><g class="relationship" transform="translate(1.783069706025544 29.328953899291694) rotate(400.1000975627512)"><path class="outline" fill="#A5ABB6" stroke="none" d="M 25 0.5 L 32.26700599660324 0.5 L 32.26700599660324 -0.5 L 25 -0.5 Z M 77.84276206960129 0.5 L 85.10976806620452 0.5 L 85.10976806620452 3.5 L 92.10976806620452 0 L 85.10976806620452 -3.5 L 85.10976806620452 -0.5 L 77.84276206960129 -0.5 Z"/><text text-anchor="middle" pointer-events="none" font-size="8px" fill="#000000" x="55.05488403310226" y="3" font-family="sans-serif">ACTED_IN</text></g><g class="relationship" transform="translate(-22.455298443440473 132.14120215811928) rotate(346.4744715985719)"><path class="outline" fill="#A5ABB6" stroke="none" d="M 25 0.5 L 31.57780507574747 0.5 L 31.57780507574747 -0.5 L 25 -0.5 Z M 78.48689702521037 0.5 L 85.06470210095783 0.5 L 85.06470210095783 3.5 L 92.06470210095783 0 L 85.06470210095783 -3.5 L 85.06470210095783 -0.5 L 78.48689702521037 -0.5 Z"/><text text-anchor="middle" pointer-events="none" font-size="8px" fill="#000000" x="55.032351050478916" y="3" font-family="sans-serif">DIRECTED</text></g><g class="relationship" transform="translate(46.74491792095997 212.5211452001415) rotate(292.4921054193646)"><path class="outline" fill="#A5ABB6" stroke="none" d="M 25 0.5 L 36.936564460859906 0.5 L 36.936564460859906 -0.5 L 25 -0.5 Z M 72.69414044962943 0.5 L 84.63070491048934 0.5 L 84.63070491048934 3.5 L 91.63070491048934 0 L 84.63070491048934 -3.5 L 84.63070491048934 -0.5 L 72.69414044962943 -0.5 Z"/><text text-anchor="middle" pointer-events="none" font-size="8px" fill="#000000" x="54.81535245524467" y="3" font-family="sans-serif">WROTE</text></g></g><g class="layer nodes"><g class="node" transform="translate(91.36270910939055,104.76227532214375)"><circle class="outline" cx="0" cy="0" r="25" fill="#F79767" stroke="#f36924" stroke-width="2px"/><text text-anchor="middle" pointer-events="none" font-family="sans-serif" dy="1.5625" font-size="25" fill="#FFFFFF"/><text text-anchor="middle" pointer-events="none" font-family="sans-serif" dy="1.5625" font-size="25" fill="#FFFFFF"/><text text-anchor="middle" pointer-events="none" font-family="sans-serif" dy="1.5625" font-size="25" fill="#FFFFFF"/><text text-anchor="middle" pointer-events="none" y="-5" font-size="10px" fill="#FFFFFF" font-family="sans-serif"> Captain</text><text text-anchor="middle" pointer-events="none" y="5" font-size="10px" fill="#FFFFFF" font-family="sans-serif"> America:</text><text text-anchor="middle" pointer-events="none" y="15" font-size="10px" fill="#FFFFFF" font-family="sans-serif"> The Fi…</text></g><g class="node" transform="translate(151.1302485457203,206.04713504210886)"><circle class="outline" cx="0" cy="0" r="25" fill="#57C7E3" stroke="#23b3d7" stroke-width="2px"/><text text-anchor="middle" pointer-events="none" font-family="sans-serif" dy="1.5625" font-size="25" fill="#FFFFFF"/><text text-anchor="middle" pointer-events="none" font-family="sans-serif" dy="1.5625" font-size="25" fill="#FFFFFF"/><text text-anchor="middle" pointer-events="none" y="0" font-size="10px" fill="#FFFFFF" font-family="sans-serif"> Hugo</text><text text-anchor="middle" pointer-events="none" y="10" font-size="10px" fill="#FFFFFF" font-family="sans-serif"> Weaving</text></g><g class="node" transform="translate(207.74478092889314,121.270490579534)"><circle class="outline" cx="0" cy="0" r="25" fill="#57C7E3" stroke="#23b3d7" stroke-width="2px"/><text text-anchor="middle" pointer-events="none" font-family="sans-serif" dy="1.5625" font-size="25" fill="#FFFFFF"/><text text-anchor="middle" pointer-events="none" font-family="sans-serif" dy="1.5625" font-size="25" fill="#FFFFFF"/><text text-anchor="middle" pointer-events="none" y="0" font-size="10px" fill="#FFFFFF" font-family="sans-serif"> Hayley</text><text text-anchor="middle" pointer-events="none" y="10" font-size="10px" fill="#FFFFFF" font-family="sans-serif"> Atwell</text></g><g class="node" transform="translate(181.79850469307772,30.418422753689477)"><circle class="outline" cx="0" cy="0" r="25" fill="#57C7E3" stroke="#23b3d7" stroke-width="2px"/><text text-anchor="middle" pointer-events="none" font-family="sans-serif" dy="1.5625" font-size="25" fill="#FFFFFF"/><text text-anchor="middle" pointer-events="none" y="5" font-size="10px" fill="#FFFFFF" font-family="sans-serif"> Sebastian</text></g><g class="node" transform="translate(97.75026695376543,-12.860866277913448)"><circle class="outline" cx="0" cy="0" r="25" fill="#57C7E3" stroke="#23b3d7" stroke-width="2px"/><text text-anchor="middle" pointer-events="none" font-family="sans-serif" dy="1.5625" font-size="25" fill="#FFFFFF"/><text text-anchor="middle" pointer-events="none" font-family="sans-serif" dy="1.5625" font-size="25" fill="#FFFFFF"/><text text-anchor="middle" pointer-events="none" font-family="sans-serif" dy="1.5625" font-size="25" fill="#FFFFFF"/><text text-anchor="middle" pointer-events="none" y="-5" font-size="10px" fill="#FFFFFF" font-family="sans-serif"> Tommy</text><text text-anchor="middle" pointer-events="none" y="5" font-size="10px" fill="#FFFFFF" font-family="sans-serif"> Lee</text><text text-anchor="middle" pointer-events="none" y="15" font-size="10px" fill="#FFFFFF" font-family="sans-serif"> Jones</text></g><g class="node" transform="translate(1.783069706025544,29.328953899291694)"><circle class="outline" cx="0" cy="0" r="25" fill="#57C7E3" stroke="#23b3d7" stroke-width="2px"/><text text-anchor="middle" pointer-events="none" font-family="sans-serif" dy="1.5625" font-size="25" fill="#FFFFFF"/><text text-anchor="middle" pointer-events="none" font-family="sans-serif" dy="1.5625" font-size="25" fill="#FFFFFF"/><text text-anchor="middle" pointer-events="none" y="0" font-size="10px" fill="#FFFFFF" font-family="sans-serif"> Chris</text><text text-anchor="middle" pointer-events="none" y="10" font-size="10px" fill="#FFFFFF" font-family="sans-serif"> Evans</text></g><g class="node" transform="translate(-22.455298443440473,132.14120215811928)"><circle class="outline" cx="0" cy="0" r="25" fill="#57C7E3" stroke="#23b3d7" stroke-width="2px"/><text text-anchor="middle" pointer-events="none" font-family="sans-serif" dy="1.5625" font-size="25" fill="#FFFFFF"/><text text-anchor="middle" pointer-events="none" font-family="sans-serif" dy="1.5625" font-size="25" fill="#FFFFFF"/><text text-anchor="middle" pointer-events="none" y="0" font-size="10px" fill="#FFFFFF" font-family="sans-serif"> Joe</text><text text-anchor="middle" pointer-events="none" y="10" font-size="10px" fill="#FFFFFF" font-family="sans-serif"> Johnston</text></g><g class="node" transform="translate(46.74491792095997,212.5211452001415)"><circle class="outline" cx="0" cy="0" r="25" fill="#57C7E3" stroke="#23b3d7" stroke-width="2px"/><text text-anchor="middle" pointer-events="none" font-family="sans-serif" dy="1.5625" font-size="25" fill="#FFFFFF"/><text text-anchor="middle" pointer-events="none" y="5" font-size="10px" fill="#FFFFFF" font-family="sans-serif"> Christop…</text></g></g></svg>